<svg xmlns="http://www.w3.org/2000/svg" xmlns:xlink="http://www.w3.org/1999/xlink" width="1920" height="1084" viewBox="0 0 1920 1084" fill="none"><defs><rect id="path_0" x="0" y="0" width="1920" height="1084" /><linearGradient id="linear_0" x1="70.42701780977646%" y1="135.18721509038508%" x2="40.867430845017076%" y2="11.779617500654966%" gradientUnits="objectBoundingBox"><stop offset="0.4655" stop-color="#FCCBB9" stop-opacity="1" /><stop offset="0.6767" stop-color="#FDF8EF" stop-opacity="1" /></linearGradient><filter id="filter_378" x="-4" y="-4" width="1922" height="1087.1022443890274" filterUnits="userSpaceOnUse" color-interpolation-filters="sRGB"><feFlood flood-opacity="0" result="BackgroundImageFix"/>
          <feColorMatrix in="SourceAlpha" type="matrix" values="0 0 0 0 0 0 0 0 0 0 0 0 0 0 0 0 0 0 127 0"/>
          <feOffset dx="0" dy="0"/>
          <feGaussianBlur stdDeviation="2"/>
          <feColorMatrix type="matrix" values="0 0 0 0 0.8980392156862745 0 0 0 0 0.8980392156862745 0 0 0 0 0.8980392156862745 0 0 0 1 0"/>
          <feBlend mode="normal" in2="BackgroundImageFix" result="effect1_Shadow"/>
          <feBlend mode="normal" in="SourceGraphic" in2="effect1_Shadow" result="shape"/></filter><filter id="filter_386" x="-4" y="-4" width="1928" height="1087.1022443890274" filterUnits="userSpaceOnUse" color-interpolation-filters="sRGB"><feFlood flood-opacity="0" result="BackgroundImageFix"/>
          <feColorMatrix in="SourceAlpha" type="matrix" values="0 0 0 0 0 0 0 0 0 0 0 0 0 0 0 0 0 0 127 0"/>
          <feOffset dx="0" dy="0"/>
          <feGaussianBlur stdDeviation="2"/>
          <feColorMatrix type="matrix" values="0 0 0 0 0.8980392156862745 0 0 0 0 0.8980392156862745 0 0 0 0 0.8980392156862745 0 0 0 1 0"/>
          <feBlend mode="normal" in2="BackgroundImageFix" result="effect1_Shadow"/>
          <feBlend mode="normal" in="SourceGraphic" in2="effect1_Shadow" result="shape"/></filter></defs><g opacity="1" transform="translate(0 0)  rotate(0 960 542)"><rect fill="#FFFFFF" opacity="1" transform="translate(0 0)  rotate(0 960 542)" x="0" y="0" width="1920" height="1084" /><mask id="bg-mask-0" fill="white"><use xlink:href="#path_0"></use></mask><g mask="url(#bg-mask-0)" ><g opacity="1" transform="translate(0 0)  rotate(0 960 542)"><g opacity="1" transform="translate(0 0)  rotate(0 960 542)"><g opacity="1" transform="translate(0 0)  rotate(0 960 542)"><path id="背景" fill-rule="evenodd" style="fill:#FFCAA6" transform="translate(0 3.0000000000001137)  rotate(0 960 540.5)" opacity="0.3" d="M0,1081L1920,1081L1920,0L0,0L0,1081Z " /><g opacity="1" transform="translate(0 0)  rotate(0 957.5 539.5511221945137)"><g opacity="1" transform="translate(-249.6039043299204 0)  rotate(0 1.8137697116039826 1.4136125654450264)"></g><path id="路径 2" fill-rule="evenodd" fill="url(#linear_0)" transform="translate(0.6963158714287658 0)  rotate(0 957.3076537845819 539.5759162303665)" opacity="1" d="M658.04,812.54C658.04,812.54 485,852.69 399.75,871.07C355.5,880.68 314.14,896.23 273.15,912.35C230.71,929.03 189.36,947.4 150.18,968.32C93.59,998.29 38.81,1034.48 0,1079.15L1914.62,1079.15L1914.62,0L1343.64,0C1306.28,25.73 1274.35,56.26 1248.24,90.19C1198.54,155.21 1159.36,225.9 1141.95,300.53C1125.26,373.19 1131.07,447.27 1154.28,518.51C1155.01,520.77 1153.56,523.88 1150.66,523.6C967.83,511.73 713.9,635.28 658.04,812.54Z " /></g><g opacity="1" transform="translate(335 542.2443890274315)  rotate(0 790.5 268.428927680798)"><g opacity="1" transform="translate(-601.5326603955095 -541.7888916452328)  rotate(0 1.8275496175325048 1.4136125654450264)"></g><path id="路径 3" fill-rule="evenodd" style="fill:#FFEDD9" transform="translate(0.09667369619066335 0.7556109725685474)  rotate(0 790.2324546210552 268.3036649214659)" opacity="1" d="M14.25,528.97C12.06,530.39 9.14,530.1 7.31,528.97C4.75,531.52 2.56,534.06 0,536.61L1580.46,536.61L1580.46,0C1448.15,15.27 1315.84,34.21 1186.08,58.81C1042.07,85.66 902.08,123.83 767.21,170.48C497.09,263.5 246.35,388.18 14.25,528.97Z " /></g><g opacity="1" transform="translate(0 0.8977556109725686)  rotate(0 957 539.5511221945137)"><g opacity="1" transform="translate(-4.6629367034256575e-14 0.10224438902743138)  rotate(0 956.7348245827133 539.5759162303665)"></g><g opacity="1" transform="translate(1101.616854869178 792.856171090598)  rotate(0 89.6710486453696 75.20418848167552)"><g opacity="1" transform="translate(29.39275153140602 23.76988191843577)  rotate(0 74.97467287966674 53.29842726124213)"><path id="路径 4" fill-rule="evenodd" style="fill:#343952" transform="translate(0 0)  rotate(0 74.97467287966674 53.29842726124213)" opacity="1" d="M28.69,35.88C39.6,46.63 51.47,56.81 63.99,65.85C89.66,83.95 117.58,97.52 148.38,106.57C149.66,106.85 150.63,105.15 149.34,104.87C119.82,94.97 91.26,80.84 66.55,63.03C54.36,54.26 43.13,44.65 32.22,34.47C26.44,29.1 21.31,23.16 16.17,17.22C11.36,11.85 7.51,5.07 2.05,0.26C1.41,-0.59 -0.51,0.83 0.13,1.68C3.34,8.18 8.79,13.83 13.29,19.2C18.1,24.86 23.55,30.51 28.69,35.88Z " /></g><g opacity="1" transform="translate(0 56.68252924621402)  rotate(0 32.08904325281615 11.320665070236567)"><g opacity="1" transform="translate(0 -3.410605131648481e-13)  rotate(0 32.08904325281615 11.320665070236567)"><path id="路径 5" fill-rule="evenodd" style="fill:#888AC2" transform="translate(0 0)  rotate(0 32.08904325281615 11.320665070236567)" opacity="1" d="M62.57,8.06C52.63,4.39 42.68,0.99 31.77,0.14C20.86,-0.7 8.98,2.12 0,10.04C9.95,15.69 19.9,21.35 31.77,22.48C43.32,23.61 57.44,18.8 64.18,8.06L62.57,8.06Z " /></g><g opacity="1" transform="translate(18.135437002979188 6.998598578086785)  rotate(0 18.22285687921036 2.9214174956798495)"><path id="路径 6" fill-rule="evenodd" style="fill:#343952" transform="translate(0 0)  rotate(0 18.22285687921036 2.9214174956798495)" opacity="1" d="M34.81,3.61C37.38,2.76 36.74,-0.92 34.17,0.21C22.94,4.17 11.71,4.17 1.12,1.35C0.16,1.06 -0.49,2.48 0.48,2.76C11.07,6.72 22.94,6.72 34.81,3.61Z " /></g></g><g opacity="1" transform="translate(22.462330276971898 81.24494189584948)  rotate(0 31.768152820287906 11.67043238962571)"><g opacity="1" transform="translate(2.2737367544323206e-13 0)  rotate(0 31.768152820287906 11.67043238962571)"><path id="路径 7" fill-rule="evenodd" style="fill:#888AC2" transform="translate(0 0)  rotate(0 31.768152820287906 11.67043238962571)" opacity="1" d="M61.61,0.74C51.02,-0.1 39.79,-0.67 28.88,1.59C17.97,3.85 6.74,9.79 0,19.4C11.23,21.95 23.1,24.78 34.98,22.51C46.85,20.25 59.69,12.05 63.54,0.18L61.61,0.74Z " /></g><g opacity="1" transform="translate(17.76505293791456 2.3636701405007443)  rotate(0 18.241136273887676 6.0444858120917795)"><path id="路径 8" fill-rule="evenodd" style="fill:#343952" transform="translate(0 0)  rotate(0 18.241136273887676 6.0444858120917795)" opacity="1" d="M35.18,3.47C37.75,2.06 36.14,-1.05 33.58,0.36C23.31,7.15 12.4,9.97 0.85,10.26C-0.12,10.26 -0.44,11.95 0.85,11.95C12.4,12.8 24.27,9.69 35.18,3.47Z " /></g></g><g opacity="1" transform="translate(50.37979790692134 97.82198952879605)  rotate(0 30.324145873911224 15.47694724477459)"><g opacity="1" transform="translate(0 0)  rotate(0 30.324145873911224 15.47694724477459)"><path id="路径 9" fill-rule="evenodd" style="fill:#888AC2" transform="translate(0 0)  rotate(0 30.324145873911224 15.47694724477459)" opacity="1" d="M59.04,0.85C47.81,2.26 36.58,3.96 25.99,8.2C15.08,12.44 5.13,20.36 0,30.82C11.87,31.1 24.39,31.38 35.94,26.86C47.81,22.34 58.72,12.16 60.65,0L59.04,0.85Z " /></g><g opacity="1" transform="translate(17.1232720728583 3.7177743080759456)  rotate(0 17.320198755554852 9.167290856433134)"><path id="路径 10" fill-rule="evenodd" style="fill:#343952" transform="translate(0 2.2737367544323206e-13)  rotate(0 17.320198755554852 9.167290856433134)" opacity="1" d="M33.9,3.35C35.82,1.65 33.58,-1.17 31.97,0.52C22.99,9 12.08,14.09 0.85,16.64C-0.44,16.92 -0.12,18.33 0.85,18.33C12.72,16.92 24.27,11.55 33.9,3.35Z " /></g></g><g opacity="1" transform="translate(81.50616986215346 113.08900523560249)  rotate(0 28.559248495006386 18.659685863874326)"><g opacity="1" transform="translate(0 -2.2737367544323206e-13)  rotate(0 28.559248495006386 18.659685863874326)"><path id="路径 11" fill-rule="evenodd" style="fill:#888AC2" transform="translate(0 0)  rotate(0 28.559248495006386 18.659685863874326)" opacity="1" d="M55.83,0.85C44.92,3.39 33.69,6.22 23.43,11.87C13.16,17.53 3.85,26.29 0,37.32C11.87,36.19 24.39,34.77 35.62,29.12C46.85,23.47 56.8,12.16 57.12,0L55.83,0.85Z " /></g><g opacity="1" transform="translate(15.784154883602241 5.166608564394323)  rotate(0 16.74783501040333 10.864500658162664)"><path id="路径 12" fill-rule="evenodd" style="fill:#343952" transform="translate(0 0)  rotate(0 16.74783501040333 10.864500658162664)" opacity="1" d="M32.99,2.75C34.6,1.05 32.03,-1.21 30.1,0.77C22.08,10.1 11.81,16.32 0.58,20C-0.38,20.56 -0.06,21.97 0.9,21.69C13.1,18.86 23.69,12.08 32.99,2.75Z " /></g></g><g opacity="1" transform="translate(57.40357305657676 1.4136125654453053)  rotate(0 11.30301101228243 32.37172774869107)"><g opacity="1" transform="translate(0 1.1368683772161603e-13)  rotate(0 11.30301101228243 32.37172774869107)"><path id="路径 13" fill-rule="evenodd" style="fill:#888AC2" transform="translate(0 0)  rotate(0 11.30301101228243 32.37172774869107)" opacity="1" d="M22.18,35.06C23.78,22.9 20.57,11.31 17.68,0C8.38,7.07 2.92,18.66 1,29.97C-0.93,40.99 0.36,52.02 1.32,63.05L1.32,64.74C12.87,60.22 20.57,47.21 22.18,35.06Z " /></g><g opacity="1" transform="translate(2.646211538720763 18.430288124369326)  rotate(0 5.4350179392684925 18.40128711019718)"><path id="路径 14" fill-rule="evenodd" style="fill:#343952" transform="translate(0 0)  rotate(0 5.4350179392684925 18.40128711019718)" opacity="1" d="M0.28,34.44C-1.01,36.7 2.52,37.83 3.49,35.57C9.26,24.26 11.83,12.39 10.55,0.51C10.55,-0.34 8.94,-0.05 8.94,0.79C9.26,12.39 6.7,23.7 0.28,34.44Z " /></g></g><g opacity="1" transform="translate(83.43151245732224 15.8324607329846)  rotate(0 11.968635539013158 31.94764397905762)"><g opacity="1" transform="translate(0 0)  rotate(0 11.968635539013158 31.94764397905762)"><path id="路径 15" fill-rule="evenodd" style="fill:#888AC2" transform="translate(0 0)  rotate(0 11.968635539013158 31.94764397905762)" opacity="1" d="M22.78,35.62C25.35,23.47 23.1,11.59 21.18,0C11.55,6.5 5.13,17.81 2.57,28.84C0,39.86 0,51.17 0.32,62.2L0,63.9C11.87,60.22 20.22,47.78 22.78,35.62Z " /></g><g opacity="1" transform="translate(2.448468018898211 18.14756561128013)  rotate(0 6.487199290974237 18.177526094883447)"><path id="路径 16" fill-rule="evenodd" style="fill:#343952" transform="translate(0 0)  rotate(0 6.487199290974237 18.177526094883447)" opacity="1" d="M0.44,33.59C-1.16,35.85 2.04,37.55 3.33,35.29C9.75,24.54 13.28,12.67 12.95,0.51C12.95,-0.34 11.35,-0.05 11.35,0.79C10.71,12.39 7.18,23.41 0.44,33.59Z " /></g></g><g opacity="1" transform="translate(111.9907609523284 32.79581151832474)  rotate(0 12.448858713860353 31.66492146596863)"><g opacity="1" transform="translate(0 0)  rotate(0 12.448858713860353 31.66492146596863)"><path id="路径 17" fill-rule="evenodd" style="fill:#888AC2" transform="translate(0 0)  rotate(0 12.448858713860353 31.66492146596863)" opacity="1" d="M23.43,35.62C26.31,23.47 24.39,11.59 22.46,0C12.51,6.22 6.1,17.25 3.21,28.27C0.32,39.3 0.32,50.61 0.32,61.63L0,63.33C11.87,59.94 20.54,47.78 23.43,35.62Z " /></g><g opacity="1" transform="translate(2.417895949638705 17.657039360426438)  rotate(0 6.982397698823846 18.219449367281474)"><path id="路径 18" fill-rule="evenodd" style="fill:#343952" transform="translate(0 2.2737367544323206e-13)  rotate(0 6.982397698823846 18.219449367281474)" opacity="1" d="M0.47,33.52C-1.13,35.49 1.75,37.76 3.36,35.49C10.1,24.47 14.27,12.59 13.95,0.72C13.95,-0.41 12.34,-0.13 12.34,1C11.38,12.59 7.85,23.62 0.47,33.52Z " /></g></g><g opacity="1" transform="translate(135.73665295941237 54)  rotate(0 15.007166688074816 30.534031413612595)"><g opacity="1" transform="translate(0 0)  rotate(0 15.007166688074816 30.534031413612595)"><path id="路径 19" fill-rule="evenodd" style="fill:#888AC2" transform="translate(0 0)  rotate(0 15.007166688074816 30.534031413612595)" opacity="1" d="M26.31,36.19C30.48,24.31 30.16,11.87 29.84,0C19.57,5.09 11.87,15.55 7.38,26.29C3.21,37.04 1.6,48.35 0.32,59.65L0,61.07C11.87,59.09 22.14,47.78 26.31,36.19Z " /></g><g opacity="1" transform="translate(3.7014576797514565 16.963350785340594)  rotate(0 8.920197614900701 17.65594954601303)"><path id="路径 20" fill-rule="evenodd" style="fill:#343952" transform="translate(0 0)  rotate(0 8.920197614900701 17.65594954601303)" opacity="1" d="M0.47,32.51C-1.13,34.49 1.75,36.47 3.36,34.49C11.38,24.6 16.51,13.01 17.8,0.85C18.12,-0.28 16.51,-0.28 16.19,0.85C13.95,12.44 8.81,23.18 0.47,32.51Z " /></g></g><g opacity="1" transform="translate(21.820549411915408 -2.2737367544323206e-13)  rotate(0 16.525857275200334 25.738713588770473)"><g opacity="1" transform="translate(0 0)  rotate(0 16.525857275200334 25.738713588770473)"><path id="路径 21" fill-rule="evenodd" style="fill:#888AC2" transform="translate(0 0)  rotate(0 16.525857275200334 25.738713588770473)" opacity="1" d="M32.09,49.76C30.16,39.02 28.24,28.27 23.43,18.94C18.61,9.61 10.59,1.7 0,0C0.32,12.16 0.64,24.31 5.46,34.77C10.59,45.24 21.18,53.15 33.05,51.17L32.09,49.76Z " /></g><g opacity="1" transform="translate(9.263628613150786 14.208408425385414)  rotate(0 9.741349904066643 15.128138983792072)"><path id="路径 22" fill-rule="evenodd" style="fill:#343952" transform="translate(0 0)  rotate(0 9.741349904066643 15.128138983792072)" opacity="1" d="M16.41,29.9C18.01,31.31 20.58,28.2 18.97,26.79C10.31,20.28 4.86,11.24 1.65,0.49C1.33,-0.36 -0.28,-0.07 0.04,1.06C1.97,12.65 7.74,22.55 16.41,29.9Z " /></g></g></g><g opacity="1" transform="translate(1530.4344162502937 674.3954381063047)  rotate(0 78.00671412024553 108.41961369134339)"><g opacity="1" transform="translate(0 0)  rotate(0 78.00671412024553 93.0407304928881)"><path id="路径 23" fill-rule="evenodd" style="fill:#888AC2" transform="translate(0 0)  rotate(0 78.00671412024553 93.04073049288813)" opacity="1" d="M36.15,179.81C34.87,185.18 44.5,186.88 50.59,185.75C68.88,182.64 87.5,179.53 103.54,171.61C134.99,156.06 152.96,124.12 155.52,92.45C158.41,60.79 148.14,29.4 134.67,0C112.52,12.72 86.21,18.09 63.11,29.4C32.62,44.1 8.56,70.12 1.82,100.08C-4.92,130.05 7.27,163.7 35.19,182.07L36.15,179.81Z " /></g><g opacity="1" transform="translate(9.900754293173804 12.439790575916277)  rotate(0 68.05244499803045 81.25714742427398)"><path id="路径 24" fill-rule="evenodd" style="fill:#444076" transform="translate(0 0)  rotate(0 68.05244499803045 81.257147424274)" opacity="1" d="M31.71,156.91C30.42,161.72 38.77,163.13 44.22,162.28C59.95,159.46 76.31,156.91 90.43,149.84C117.71,136.55 133.43,108.57 135.68,80.86C138.24,53.15 128.94,25.73 117.38,0C98.45,11.03 75.35,15.83 55.13,25.73C28.5,38.73 7.32,61.07 1.54,87.36C-4.23,113.65 6.36,143.06 30.74,158.89L31.71,156.91Z " /></g><g opacity="1" transform="translate(25.551660560744722 13.220104712041802)  rotate(0 61.19560961172193 101.80956133532244)"><path id="路径 25" fill-rule="evenodd" style="fill:#28223D" transform="translate(0 0)  rotate(0 52.14016963914459 101.80956133532247)" opacity="1" d="M26.97,147.93C35.31,131.25 44.94,115.42 54.56,99.59C73.5,67.92 95,36.26 103.98,0.92C104.94,0.07 103.34,-0.5 102.7,0.63C87.61,35.97 66.76,68.49 45.9,101.57C35.95,117.4 26.32,133.23 18.3,149.63C10.6,165.46 1.94,183.27 0.01,200.52C-0.31,204.19 6.11,204.76 7.07,201.37C10.28,192.6 11.88,183.55 15.09,174.79C18.62,165.74 22.47,156.7 26.97,147.93Z " /><path id="路径 26" fill-rule="evenodd" style="fill:#28223D" transform="translate(6.429439168579393 90.13630613568932)  rotate(0 7.077171145149164 29.980093344387342)" opacity="1" d="M10.59,32.92C8.98,22.46 8.02,11.43 4.81,1.53C4.17,-0.73 0,-0.45 0,2.1C0.32,11.71 3.21,21.89 5.13,31.5C6.1,36.59 7.06,41.4 8.02,46.49C8.98,51.29 9.31,55.82 12.19,59.77C12.19,60.06 12.84,60.06 13.16,59.49C16.04,51.58 11.87,40.83 10.59,32.92Z " /><path id="路径 27" fill-rule="evenodd" style="fill:#28223D" transform="translate(18.87452383209211 118.41827180482551)  rotate(0 32.667524888885424 16.34877430812839)" opacity="1" d="M32.48,19.9C43.07,15.09 53.66,10.01 63.93,4.63C67.14,2.94 64.25,-1.3 61.36,0.39C51.41,5.48 41.46,10.57 31.52,15.38C21.57,20.18 10.66,24.14 1.03,29.51C-0.89,30.36 0.07,33.19 2.32,32.62C12.91,29.51 22.85,24.14 32.48,19.9Z " /><path id="路径 28" fill-rule="evenodd" style="fill:#28223D" transform="translate(18.94900241033656 54.03112000275905)  rotate(0 7.7426044794681435 37.231717485531526)" opacity="1" d="M9.62,41.03C6.09,28.03 4.17,15.3 5.13,2.02C5.45,-0.53 0.64,-0.81 0.32,2.02C-0.65,13.89 0.64,25.48 3.52,37.07C5.13,43.01 6.73,48.95 8.34,54.88C9.94,61.1 10.26,67.61 12.51,73.83C12.51,74.68 14.44,74.68 14.76,73.83C17.32,63.08 12.51,51.21 9.62,41.03Z " /><path id="路径 29" fill-rule="evenodd" style="fill:#28223D" transform="translate(31.753779433443924 95.99245277239925)  rotate(0 32.44721286174488 14.564186621432789)" opacity="1" d="M63.56,4.16C66.45,3.03 64.2,-0.93 61,0.2C41.1,8.4 19.28,16.03 0.67,26.49C-0.62,27.34 0.03,29.6 1.95,29.04C23.13,22.82 43.35,12.64 63.56,4.16Z " /><path id="路径 30" fill-rule="evenodd" style="fill:#28223D" transform="translate(40.10758533819762 32.156858638743984)  rotate(0 6.434961195294378 33.24549943331598)" opacity="1" d="M4.83,2.12C4.51,-0.71 -0.31,-0.71 0.02,2.12C0.98,22.76 2.9,44.81 8.68,65.17C9.32,67.15 13.17,66.86 12.85,64.6C10.28,43.68 6.75,23.04 4.83,2.12Z " /><path id="路径 31" fill-rule="evenodd" style="fill:#28223D" transform="translate(48.70911518725893 67.57546838577457)  rotate(0 32.86759518916742 14.186044600033256)" opacity="1" d="M31.85,16.74C42.76,12.5 54.31,9.11 64.58,4.02C66.82,2.89 65.54,-0.5 62.97,0.06C52.06,2.89 41.47,7.98 30.88,12.22C20.61,16.46 9.06,20.14 0.4,26.36C-0.56,27.2 0.4,28.62 1.36,28.34C11.95,26.07 21.9,20.7 31.85,16.74Z " /><path id="路径 32" fill-rule="evenodd" style="fill:#28223D" transform="translate(60.98081269836666 13.163241971064508)  rotate(0 5.518875760391704 27.173524255720544)" opacity="1" d="M8.34,28.46C7.06,19.42 6.42,10.09 4.17,1.32C3.53,-0.66 0,-0.37 0,1.89C0.32,10.09 2.25,18.57 3.53,26.77C4.81,35.82 5.46,45.15 8.66,53.63C8.98,54.76 10.59,54.48 10.91,53.34C11.55,45.15 9.63,36.66 8.34,28.46Z " /><path id="路径 33" fill-rule="evenodd" style="fill:#28223D" transform="translate(70.2446729511746 37.70008842864206)  rotate(0 26.073273136134606 13.159365934008243)" opacity="1" d="M51.06 0.54C49.78 -0.03 48.82 -0.31 47.53 0.54C46.75 1 46.17 1.84 46.34 2.75C43.52 4.49 36.82 6.39 34.7 7.32C29.56 9.3 24.75 11.56 19.62 13.54C13.52 16.09 2.61 18.63 0.04 24.57C-0.28 25.98 1.33 26.83 1.97 25.98C5.5 22.87 13.2 21.17 17.69 19.19C22.83 17.22 27.64 14.95 32.77 12.98C37.27 11 42.08 9.3 46.57 7.32C49.46 6.19 51.38 5.62 52.03 3.08C52.35 2.23 52.03 1.1 51.06 0.54Z" /><path id="路径 34" fill-rule="evenodd" style="fill:#28223D" transform="translate(82.75939981977331 2.6089551188570113)  rotate(0 3.738323154051252 16.704197385787513)" opacity="1" d="M6.46,16.12C5.82,11.03 5.5,5.66 3.25,0.85C2.61,-0.84 0.04,0.29 0.04,1.7C-0.28,7.07 1.33,12.44 1.97,17.81C2.93,22.9 2.93,28.28 5.5,33.08C5.82,33.65 6.14,33.36 6.46,33.08C8.39,27.71 7.1,21.77 6.46,16.12Z " /><path id="路径 35" fill-rule="evenodd" style="fill:#28223D" transform="translate(88.49952882075013 19.362182682514003)  rotate(0 15.116915652697246 7.598908658743075)" opacity="1" d="M14.52,10.11C19.33,8.13 24.14,6.15 28.96,3.89C31.85,2.76 29.28,-0.92 26.71,0.21C21.9,2.48 17.09,4.45 12.59,6.72C8.42,8.7 3.93,10.39 0.4,13.22C-0.56,14.07 0.4,15.2 1.36,15.2C5.85,14.35 10.35,11.81 14.52,10.11Z " /></g></g><g opacity="1" transform="translate(1626.59360248525 621.80905067175)  rotate(0 137.9828859871096 158.51999949732462)"><g opacity="1" transform="translate(102.09580363054329 27.462933419227056)  rotate(0 51.55843361219671 144.78853278771118)"><path id="路径 36" fill-rule="evenodd" style="fill:#343952" transform="translate(0 0)  rotate(0 51.55843361219671 144.78853278771118)" opacity="1" d="M53.54,65.55C40.38,89.02 29.47,113.05 21.13,137.36C4.12,186.84 -2.62,237.17 0.91,288.06C0.91,290.03 4.76,290.03 4.76,288.34C3.48,238.3 11.18,187.41 28.19,139.06C36.21,115.59 46.8,92.41 59.31,69.79C66.05,57.92 73.11,46.04 80.81,34.74C87.87,23.99 97.5,13.81 102.95,2.51C103.92,0.81 100.39,-0.89 98.78,0.53C88.51,9.57 81.77,21.17 74.39,31.63C67.01,42.65 59.95,53.96 53.54,65.55Z " /></g><g opacity="1" transform="translate(98.23054957893169 13.00523560209399)  rotate(0 25.973086422124304 46.08376963350789)"><g opacity="1" transform="translate(0 0)  rotate(0 25.973086422124304 46.08376963350789)"><path id="路径 37" fill-rule="evenodd" style="fill:#888AC2" transform="translate(0 0)  rotate(0 25.973086422124304 46.08376963350789)" opacity="1" d="M50.98,89.91C50.98,72.94 51.3,55.98 45.21,39.58C39.11,23.18 25.63,7.63 5.1,0C1.25,18.09 -2.93,36.75 2.85,54.57C8.63,72.38 26.92,89.34 51.95,92.17L50.98,89.91Z " /></g><g opacity="1" transform="translate(17.89600099500035 25.47741537801562)  rotate(0 14.331194820522171 26.5555603434996)"><path id="路径 38" fill-rule="evenodd" style="fill:#343952" transform="translate(0 0)  rotate(0 14.331194820522171 26.5555603434996)" opacity="1" d="M21.54,51.71C24.74,55.1 31.16,51.71 27.63,48.31C12.87,34.74 5.17,18.34 3.57,0.82C3.24,-0.32 0.04,-0.32 0.04,1.1C-0.61,19.48 7.42,36.72 21.54,51.71Z " /></g></g><g opacity="1" transform="translate(54.55137352978795 68.4188481675393)  rotate(0 39.30907798469977 40.13347684641108)"><g opacity="1" transform="translate(0 0)  rotate(0 39.30907798469977 40.13347684641108)"><path id="路径 39" fill-rule="evenodd" style="fill:#888AC2" transform="translate(0 0)  rotate(0 39.30907798469977 40.13347684641111)" opacity="1" d="M77.01,77.75C71.24,61.35 65.14,44.67 53.27,30.25C41.39,15.83 22.78,3.39 0,0C2.57,18.38 5.46,37.04 17.65,53.15C29.84,69.27 53.59,82.27 78.62,80.01L77.01,77.75Z " /></g><g opacity="1" transform="translate(21.79579894043877 21.995418393953173)  rotate(0 22.864595019167076 23.447533150983563)"><path id="路径 40" fill-rule="evenodd" style="fill:#343952" transform="translate(0 0)  rotate(0 22.864595019167076 23.447533150983606)" opacity="1" d="M39.17,46.14C43.34,48.69 48.48,44.16 43.99,41.9C24.73,31.72 11.26,17.3 3.55,0.91C2.59,-0.51 -0.3,-0.23 0.02,1.47C6.12,19.28 20.24,34.27 39.17,46.14Z " /></g></g><g opacity="1" transform="translate(21.499658979387505 127.79057591623041)  rotate(0 48.93579096054462 34.75000414893439)"><g opacity="1" transform="translate(2.2737367544323206e-13 0)  rotate(0 48.93579096054462 34.75000414893439)"><path id="路径 41" fill-rule="evenodd" style="fill:#888AC2" transform="translate(0 0)  rotate(0 48.93579096054462 34.75000414893439)" opacity="1" d="M95.63,65.87C85.68,50.61 75.41,35.34 60.01,22.62C44.6,9.9 23.1,0.28 0,0C7.38,17.53 15.08,35.62 31.13,49.76C47.17,63.9 73.8,73.51 97.87,67.85L95.63,65.87Z " /></g><g opacity="1" transform="translate(27.40368869091799 18.48082060049171)  rotate(0 28.212958787283082 20.333824700263218)"><path id="路径 42" fill-rule="evenodd" style="fill:#343952" transform="translate(-4.547473508864641e-13 0)  rotate(0 28.212958787283082 20.333824700263218)" opacity="1" d="M50.57,40.33C55.07,42.02 58.92,36.93 54.42,35.52C32.28,27.89 15.6,15.73 3.4,0.46C2.12,-0.67 -0.77,0.46 0.19,1.88C10.78,18.56 28.75,31.56 50.57,40.33Z " /></g></g><g opacity="1" transform="translate(0 187.4237297222345)  rotate(0 54.390928313523524 30.993904496854398)"><g opacity="1" transform="translate(0 3.410605131648481e-13)  rotate(0 54.390928313523524 30.993904496854398)"><path id="路径 43" fill-rule="evenodd" style="fill:#888AC2" transform="translate(0 0)  rotate(0 54.39092831352342 30.993904496854398)" opacity="1" d="M106.21,57.13C93.7,42.71 80.86,28.58 63.54,17.27C45.89,6.24 23.1,-1.68 0,0.3C10.27,16.98 21.18,34.23 39.47,46.95C57.76,59.39 85.68,66.46 108.78,58.83L106.21,57.13Z " /></g><g opacity="1" transform="translate(30.594256780546175 16.003441266071718)  rotate(0 30.975572230067687 18.132073835851532)"><path id="路径 44" fill-rule="evenodd" style="fill:#343952" transform="translate(2.2737367544323206e-13 0)  rotate(0 30.975572230067687 18.132073835851532)" opacity="1" d="M57.33,36.04C61.82,37.45 64.07,31.8 59.26,30.67C36.15,25.01 17.54,14.55 3.1,0.42C1.82,-0.72 -0.75,0.7 0.21,1.83C13.69,17.66 33.9,28.97 57.33,36.04Z " /></g></g><g opacity="1" transform="translate(143.43802334008842 71.52676841823939)  rotate(0 66.26387431706546 20.06484358950894)"><g opacity="1" transform="translate(0 0)  rotate(0 66.26387431706546 20.06484358950894)"><path id="路径 45" fill-rule="evenodd" style="fill:#888AC2" transform="translate(0 0)  rotate(0 66.26387431706546 20.06484358950894)" opacity="1" d="M69.63,37.32C93.7,31.67 113.27,19.23 132.53,7.35C112.63,-1.41 87.28,-1.69 65.14,3.11C43,7.92 22.78,16.97 3.21,26.01L0,26.58C16.37,40.43 45.89,42.98 69.63,37.32Z " /></g><g opacity="1" transform="translate(20.014570798486602 11.123818019749706)  rotate(0 37.598174789434516 7.921272042921412)"><path id="路径 46" fill-rule="evenodd" style="fill:#343952" transform="translate(0 0)  rotate(0 37.598174789434516 7.921272042921412)" opacity="1" d="M3.73,10.08C-1.08,9.8 -1.4,15.45 3.73,15.74C28.76,16.59 53.15,12.34 74.33,2.45C76.25,1.6 74.65,-0.66 72.72,0.19C51.22,8.39 28.12,12.06 3.73,10.08Z " /></g></g><g opacity="1" transform="translate(134.4530912293003 122.04659747219523)  rotate(0 67.06610039838566 18.797270880409393)"><g opacity="1" transform="translate(0 0)  rotate(0 67.06610039838566 18.797270880409393)"><path id="路径 47" fill-rule="evenodd" style="fill:#888AC2" transform="translate(0 0)  rotate(0 67.06610039838566 18.797270880409393)" opacity="1" d="M68.35,36C92.74,31.75 113.92,20.45 134.13,9.7C115.2,-0.19 90.17,-1.89 67.39,1.79C44.6,5.46 23.75,13.09 3.21,21.01L0,21.29C14.76,36.28 43.96,40.24 68.35,36Z " /></g><g opacity="1" transform="translate(20.29466850559129 11.297901165312965)  rotate(0 38.09990680093883 6.077148197994068)"><path id="路径 48" fill-rule="evenodd" style="fill:#343952" transform="translate(2.2737367544323206e-13 0)  rotate(0 38.09990680093883 6.077148197994068)" opacity="1" d="M4.73,6.04C-0.72,5.19 -2,11.13 3.77,11.41C28.48,13.67 53.51,10.84 75.33,2.08C77.26,1.51 75.65,-0.46 73.73,0.1C51.58,6.89 28.48,9.43 4.73,6.04Z " /></g></g><g opacity="1" transform="translate(123.2219260908139 176.0948438394969)  rotate(0 67.3869908309139 18.511094422304943)"><g opacity="1" transform="translate(0 0)  rotate(0 67.3869908309139 18.511094422304943)"><path id="路径 49" fill-rule="evenodd" style="fill:#888AC2" transform="translate(0 0)  rotate(0 67.3869908309139 18.511094422304943)" opacity="1" d="M68.03,35.66C92.74,31.71 114.24,20.96 134.77,10.5C116.48,0.32 91.13,-1.66 68.35,1.17C45.57,4.28 24.39,11.63 3.53,19.27L0,19.83C14.12,35.1 43.32,39.62 68.03,35.66Z " /></g><g opacity="1" transform="translate(19.995110508701373 11.532377311100504)  rotate(0 38.24968579938407 5.575322298074868)"><path id="路径 50" fill-rule="evenodd" style="fill:#343952" transform="translate(0 0)  rotate(0 38.24968579938407 5.575322298074868)" opacity="1" d="M4.71,4.62C-0.1,3.78 -2.03,9.43 2.79,10C27.82,12.82 52.85,10.56 75.63,2.08C77.56,1.51 75.95,-0.46 74.03,0.1C51.56,6.6 28.46,8.58 4.71,4.62Z " /></g></g><g opacity="1" transform="translate(103.32671927406841 231.09100815426484)  rotate(0 67.70788126344213 17.174220613068904)"><g opacity="1" transform="translate(0 0)  rotate(0 67.70788126344213 17.174220613068904)"><path id="路径 51" fill-rule="evenodd" style="fill:#888AC2" transform="translate(0 1.1368683772161603e-13)  rotate(0 67.70788126344213 17.174220613068904)" opacity="1" d="M64.82,34.1C89.85,32.41 112.95,23.64 135.42,15.16C118.73,3.29 94.34,-0.95 70.92,0.18C47.81,1.02 25.35,6.68 3.53,12.33L0,12.33C11.55,28.73 39.47,35.8 64.82,34.1Z " /></g><g opacity="1" transform="translate(20.268544865997683 10.770554683360729)  rotate(0 38.44492277202442 4.4828419778391835)"><path id="路径 52" fill-rule="evenodd" style="fill:#343952" transform="translate(-2.2737367544323206e-13 0)  rotate(0 38.44492277202442 4.4828419778391835)" opacity="1" d="M4.76,0.15C0.27,-0.98 -2.3,4.67 2.84,5.52C26.9,10.33 52.25,10.33 76,4.11C77.6,3.82 76.96,1.56 74.72,1.85C51.29,6.37 27.54,6.09 4.76,0.15Z " /></g></g><g opacity="1" transform="translate(163.7489600769104 0)  rotate(0 40.179708679549755 41.27748691099474)"><g opacity="1" transform="translate(0 0)  rotate(0 40.179708679549755 41.27748691099474)"><path id="路径 53" fill-rule="evenodd" style="fill:#888AC2" transform="translate(0 0)  rotate(0 40.179708679549755 41.27748691099474)" opacity="1" d="M7.93,80.58C26.54,70.68 45.47,60.5 59.91,47.21C74.03,33.64 83.34,16.68 79.49,0C57.02,8.48 34.24,17.25 17.88,31.38C1.83,45.52 -6.19,66.44 5.68,82.55L7.93,80.58Z " /></g><g opacity="1" transform="translate(13.805499407160596 23.259076751385578)  rotate(0 23.03397792749945 23.47226843935701)"><path id="路径 54" fill-rule="evenodd" style="fill:#343952" transform="translate(0 0)  rotate(0 23.03397792749945 23.47226843935701)" opacity="1" d="M0.22,43.46C-1.39,46.86 6.32,48.55 7.6,44.88C14.02,27.91 27.17,13.49 45.46,2.19C47.07,1.34 45.14,-0.64 43.54,0.21C22.68,10.95 8.56,25.93 0.22,43.46Z " /></g></g></g><g opacity="1" transform="translate(1220.9880957696544 811.1820296012286)  rotate(0 89.27987692345596 51.156967567542914)"><g opacity="1" transform="translate(0 2.2737367544323206e-13)  rotate(0 76.76066759211007 51.156967567542914)"><path id="路径 55" fill-rule="evenodd" style="fill:#888AC2" transform="translate(0 0)  rotate(0 76.76066759211007 51.156967567542914)" opacity="1" d="M147.93,80.34C152.42,81.48 154.03,75.26 153.39,71.3C151.46,59.42 149.21,47.27 143.12,36.52C130.92,15.6 104.61,3.16 78.3,0.62C51.66,-1.93 25.03,3.73 0,11.64C10.27,26.06 14.12,43.59 22.78,58.86C34.34,78.93 55.19,95.33 80.22,100.7C105.25,105.79 133.81,98.72 149.86,81.19L147.93,80.34Z " /></g><g opacity="1" transform="translate(10.268493840901101 6.291827128387467)  rotate(0 66.9744174176634 44.67530184946186)"><path id="路径 56" fill-rule="evenodd" style="fill:#444076" transform="translate(0 0)  rotate(0 66.9744174176634 44.67530184946186)" opacity="1" d="M129,70.38C132.85,71.23 134.45,66.14 133.81,62.46C132.21,52 130.28,41.26 124.83,31.93C114.56,13.83 91.45,2.81 68.35,0.54C45.25,-1.72 21.82,3.37 0,10.16C8.98,22.88 12.19,38.15 19.9,51.43C29.84,68.96 48.13,83.38 69.95,87.91C91.77,92.43 116.48,86.21 130.6,70.94L129,70.38Z " /></g><g opacity="1" transform="translate(10.897272753526977 3.9031990809926356)  rotate(0 83.83124054669247 42.06315413047081)"><path id="路径 57" fill-rule="evenodd" style="fill:#28223D" transform="translate(0 10.521758677304092)  rotate(0 83.83124054669247 36.802274791818704)" opacity="1" d="M83.12,41.04C107.51,54.33 135.43,69.59 164.31,73.55C167.52,74.12 169.12,69.88 165.91,69.03C150.83,64.79 136.39,60.83 122.27,54.61C108.15,48.67 95,41.61 81.52,34.82C55.85,21.53 29.86,6.83 0.98,0.04C0.01,-0.24 -0.31,0.89 0.33,1.18C29.53,12.2 56.17,26.34 83.12,41.04Z " /><path id="路径 58" fill-rule="evenodd" style="fill:#28223D" transform="translate(72.52425782591354 69.60126066679095)  rotate(0 25.38015607000177 3.8440031744579435)" opacity="1" d="M26,1.75C17.66,2.6 9.32,2.88 1.29,4.58C-0.63,4.86 -0.31,7.69 1.61,7.69C9.96,7.69 18.3,6.27 26.32,5.14C34.02,4.3 43.33,4.58 50.39,1.19C51.03,1.19 50.71,0.62 50.39,0.62C42.69,-1.08 33.7,1.19 26,1.75Z " /><path id="路径 59" fill-rule="evenodd" style="fill:#28223D" transform="translate(98.5707273266944 27.21337194160992)  rotate(0 12.829030237496234 21.725793330960038)" opacity="1" d="M3.81,0.88C2.52,-1.1 -1.01,0.6 0.28,2.58C8.3,15.87 15.04,29.72 23.06,42.73C23.7,44.14 25.95,43.29 25.63,41.88C20.17,27.74 11.83,13.89 3.81,0.88Z " /><path id="路径 60" fill-rule="evenodd" style="fill:#28223D" transform="translate(42.932097303072624 59.72513089005247)  rotate(0 31.36703977962743 4.207357675773546)" opacity="1" d="M36.02,2.86C24.47,4.84 13.24,5.97 1.68,4.84C-0.56,4.56 -0.56,7.67 1.68,7.95C11.63,8.8 21.26,8.52 30.89,6.82C41.15,5.12 51.74,3.99 62.01,2.01C62.97,2.01 62.97,0.88 62.01,0.6C53.35,-1.1 44.36,1.17 36.02,2.86Z " /><path id="路径 61" fill-rule="evenodd" style="fill:#28223D" transform="translate(80.05752646860583 18.731696548940135)  rotate(0 11.377256393242101 21.42538209202217)" opacity="1" d="M3.39,0.88C2.42,-1.1 -0.78,0.6 0.18,2.58C6.6,15.87 12.37,30 20.39,42.44C21.04,43.29 23.28,42.73 22.64,41.59C17.83,27.74 10.13,14.17 3.39,0.88Z " /><path id="路径 62" fill-rule="evenodd" style="fill:#28223D" transform="translate(25.2831235140236 47.016111222966856)  rotate(0 27.962569872956742 3.262232346631751)" opacity="1" d="M1.68,3.41C-0.56,3.41 -0.56,6.52 1.68,6.52C19.33,6.24 37.3,5.39 54.63,2.85C56.56,2.28 56.24,-0.26 54.31,0.02C36.66,1.15 19.33,2.85 1.68,3.41Z " /><path id="路径 63" fill-rule="evenodd" style="fill:#28223D" transform="translate(56.71848968818381 6.052229063644177)  rotate(0 10.987805834705224 21.833537626350523)" opacity="1" d="M13.25,22.89C10.04,15.54 7.15,8.19 3.3,0.84C2.34,-0.86 -0.55,0.27 0.09,1.97C2.34,9.32 6.19,16.11 9.4,23.17C12.61,29.96 15.49,37.31 20.31,43.25C21.27,44.1 22.23,43.53 21.91,42.68C20.31,35.9 16.14,29.39 13.25,22.89Z " /><path id="路径 64" fill-rule="evenodd" style="fill:#28223D" transform="translate(9.868428404239921 33.52611413747377)  rotate(0 22.869420491847134 2.9391680621532608)" opacity="1" d="M1.05,3.05C-0.55,3.33 -0.23,5.88 1.38,5.88C15.49,5.6 31.54,4.75 45.02,1.64C45.98,1.64 45.98,0.51 45.02,0.22C30.9,-0.62 15.17,1.07 1.05,3.05Z " /><path id="路径 65" fill-rule="evenodd" style="fill:#28223D" transform="translate(32.26249042151062 0)  rotate(0 10.246140577270952 17.376137666181215)" opacity="1" d="M9.79 11.98C8.18 8.59 6.9 1.24 2.41 0.11C1.76 -0.18 0.8 0.11 0.48 0.95C-0.16 1.8 -0.16 2.37 0.48 3.22C0.82 3.67 1.26 3.88 1.68 3.93C3.21 5.74 4.48 9.98 5.29 11.41C7.22 15.09 8.82 18.77 10.75 22.44C12.68 26.4 13.96 32.9 19.09 34.6C20.38 35.16 20.7 34.03 20.38 33.47C18.13 30.92 16.85 26.4 15.24 23.29C13.64 19.61 11.71 15.94 9.79 11.98Z" /><path id="路径 66" fill-rule="evenodd" style="fill:#28223D" transform="translate(1.975106333158692 20.674083769633626)  rotate(0 13.900241618129531 2.042476466067276)" opacity="1" d="M14.4,0.35C9.91,0.64 5.1,0.64 0.93,1.77C-0.36,2.33 -0.36,4.03 1.25,4.03C6.06,4.31 11.52,3.46 16.33,2.9C20.18,2.62 24.03,2.62 27.56,1.2C27.88,1.48 27.88,0.92 27.56,0.92C23.39,-0.49 18.9,0.07 14.4,0.35Z " /><path id="路径 67" fill-rule="evenodd" style="fill:#28223D" transform="translate(16.521220828029982 1.8847683316819257)  rotate(0 6.025514809703558 10.063864850970434)" opacity="1" d="M8.2,10.38C6.6,7.27 4.99,3.88 3.39,0.77C2.42,-0.93 -0.78,0.48 0.18,2.18C3.07,7.83 5.95,14.62 10.45,19.71C11.09,20.56 12.05,19.99 12.05,19.14C11.41,16.03 9.48,13.21 8.2,10.38Z " /></g></g><g opacity="1" transform="translate(1013.3719859239338 849.0668463551555)  rotate(0 89.4403221397199 51.156967567542914)"><g opacity="1" transform="translate(0 1.1368683772161603e-13)  rotate(0 76.7606675921099 51.156967567542914)"><path id="路径 68" fill-rule="evenodd" style="fill:#888AC2" transform="translate(0 0)  rotate(0 76.7606675921099 51.156967567542914)" opacity="1" d="M147.93,80.34C152.42,81.48 154.03,75.26 153.39,71.3C151.46,59.42 149.21,47.27 143.12,36.52C130.92,15.6 104.61,3.16 78.3,0.62C51.66,-1.93 25.03,3.73 0,11.64C10.27,26.06 14.12,43.59 22.78,58.86C34.34,78.93 55.19,95.61 80.22,100.7C105.25,105.79 133.81,98.72 149.86,81.19L147.93,80.34Z " /></g><g opacity="1" transform="translate(10.589384273429346 6.291827128387695)  rotate(0 66.9744174176633 44.67530184946194)"><path id="路径 69" fill-rule="evenodd" style="fill:#444076" transform="translate(0 0)  rotate(0 66.9744174176633 44.67530184946194)" opacity="1" d="M129,70.38C132.85,71.23 134.45,66.14 133.81,62.46C132.21,52 130.28,41.26 124.83,31.93C114.56,13.83 91.45,2.81 68.35,0.54C45.25,-1.72 21.82,3.37 0,10.16C8.98,22.88 12.19,38.15 19.9,51.43C29.84,68.96 48.13,83.38 69.95,87.91C91.77,92.43 116.48,86.21 130.6,70.94L129,70.38Z " /></g><g opacity="1" transform="translate(11.21816318605488 3.9031990809922945)  rotate(0 83.83124054669247 42.06315413047081)"><path id="路径 70" fill-rule="evenodd" style="fill:#28223D" transform="translate(0 10.566753926701608)  rotate(0 83.83124054669247 36.77977716712001)" opacity="1" d="M83.12,40.99C107.51,54.28 135.43,69.55 164.31,73.51C167.52,74.07 169.12,69.83 165.91,68.98C150.83,64.74 136.39,60.79 122.27,54.57C108.15,48.63 95,41.56 81.52,34.77C55.85,21.49 29.86,6.79 0.98,0C0.01,0 -0.31,0.85 0.33,1.13C29.53,12.16 56.17,26.29 83.12,40.99Z " /><path id="路径 71" fill-rule="evenodd" style="fill:#28223D" transform="translate(72.52425782591399 69.60126066679152)  rotate(0 25.31522380459926 3.8440031744578644)" opacity="1" d="M26,1.75C17.66,2.6 9.32,2.88 1.29,4.58C-0.63,4.86 -0.31,7.69 1.61,7.69C9.96,7.69 18.3,6.27 26.32,5.14C34.02,4.3 43.33,4.58 50.39,1.19C50.71,1.19 50.71,0.9 50.39,0.62C42.69,-1.08 33.7,1.19 26,1.75Z " /><path id="路径 72" fill-rule="evenodd" style="fill:#28223D" transform="translate(98.5707273266944 27.213371941610376)  rotate(0 12.827282872510219 21.725793330959796)" opacity="1" d="M3.81,0.88C2.52,-1.1 -1.01,0.6 0.28,2.58C8.3,15.87 15.04,29.72 23.06,42.73C23.38,44.14 25.95,43.29 25.63,41.88C20.17,27.74 11.83,13.89 3.81,0.88Z " /><path id="路径 73" fill-rule="evenodd" style="fill:#28223D" transform="translate(42.932097303072396 60.00785340314144)  rotate(0 31.309823560000737 4.207357675773625)" opacity="1" d="M36.02,2.86C24.47,4.84 13.24,5.97 1.68,4.84C-0.56,4.56 -0.56,7.67 1.68,7.95C11.63,8.8 21.26,8.52 30.89,6.82C41.15,5.12 51.74,3.99 62.01,2.01C62.65,1.73 62.97,0.6 62.01,0.6C53.35,-1.1 44.36,1.17 36.02,2.86Z " /><path id="路径 74" fill-rule="evenodd" style="fill:#28223D" transform="translate(80.05752646860606 18.73169654894059)  rotate(0 11.33810184456913 21.425382092022087)" opacity="1" d="M3.39,0.88C2.42,-1.1 -0.78,0.6 0.18,2.58C6.6,15.87 12.37,30 20.39,42.44C21.04,43.29 22.96,42.73 22.64,41.59C17.83,27.74 10.13,14.17 3.39,0.88Z " /><path id="路径 75" fill-rule="evenodd" style="fill:#28223D" transform="translate(25.283123514023828 47.018114616817)  rotate(0 27.843222196033576 3.2612306497067536)" opacity="1" d="M1.68,3.41C-0.56,3.41 -0.56,6.52 1.68,6.52C19.33,6.24 37.3,5.39 54.63,2.85C56.24,2.56 55.92,-0.26 54.31,0.02C36.66,1.15 19.33,2.85 1.68,3.41Z " /><path id="路径 76" fill-rule="evenodd" style="fill:#28223D" transform="translate(56.71848968818381 6.334951576733488)  rotate(0 10.981661752219791 21.740862077435235)" opacity="1" d="M13.25,22.89C10.04,15.54 7.15,8.19 3.3,0.84C2.34,-0.86 -0.55,0.27 0.09,1.97C2.34,9.32 6.19,16.11 9.4,23.17C12.61,29.96 15.49,37.31 20.31,43.25C20.95,43.81 22.23,43.25 21.91,42.68C20.31,35.9 16.14,29.39 13.25,22.89Z " /><path id="路径 77" fill-rule="evenodd" style="fill:#28223D" transform="translate(9.868428404240376 33.808836650562625)  rotate(0 22.869420491847134 2.9391680621533407)" opacity="1" d="M1.05,3.05C-0.55,3.33 -0.23,5.88 1.38,5.88C15.49,5.6 31.54,4.75 45.02,1.64C45.98,1.35 45.98,0.22 45.02,0.22C30.9,-0.62 15.17,1.07 1.05,3.05Z " /><path id="路径 78" fill-rule="evenodd" style="fill:#28223D" transform="translate(31.94159998898249 0)  rotate(0 10.31415810429679 17.376137666181215)" opacity="1" d="M19.09 34.6C20.38 35.16 21.02 34.03 20.38 33.47C18.13 30.92 16.85 26.4 15.24 23.29C13.64 19.61 11.71 15.94 9.79 11.98C8.18 8.59 6.9 1.24 2.41 0.11C1.76 -0.18 0.8 0.11 0.48 0.95C-0.16 1.8 -0.16 2.37 0.48 3.22C0.82 3.67 1.26 3.88 1.68 3.93C3.21 5.74 4.48 9.98 5.29 11.41C7.22 15.09 8.82 18.77 10.75 22.44C12.68 26.4 13.96 32.9 19.09 34.6Z" /><path id="路径 79" fill-rule="evenodd" style="fill:#28223D" transform="translate(1.975106333158692 20.956806282722596)  rotate(0 13.851216690937983 2.0424764660671966)" opacity="1" d="M14.4,0.35C9.91,0.64 5.1,0.64 0.93,1.77C-0.36,2.33 -0.36,4.03 1.25,4.03C6.06,4.31 11.52,3.46 16.33,2.9C20.18,2.62 24.03,2.62 27.56,1.2C27.88,1.2 27.56,0.92 27.56,0.92C23.39,-0.49 18.9,0.07 14.4,0.35Z " /><path id="路径 80" fill-rule="evenodd" style="fill:#28223D" transform="translate(16.20033039550185 1.8847683316822668)  rotate(0 6.050842445100032 10.063864850970434)" opacity="1" d="M8.2,10.38C6.6,7.27 4.99,3.88 3.39,0.77C2.42,-0.93 -0.78,0.48 0.18,2.18C3.07,7.83 5.95,14.62 10.45,19.71C11.09,20.56 12.37,19.99 12.05,19.14C11.41,16.03 9.48,13.21 8.2,10.38Z " /></g></g><g opacity="1" transform="translate(922.5599935184641 874.0101981373962)  rotate(0 71.06849558319936 55.94441089821752)"><g opacity="1" transform="translate(0 0)  rotate(0 62.59750563498669 54.388233985022815)"><path id="路径 81" fill-rule="evenodd" style="fill:#888AC2" transform="translate(0 0)  rotate(0 62.59750563498669 54.388233985022815)" opacity="1" d="M115.2,98.09C119.05,100.07 122.26,94.98 122.9,91.02C124.83,79.43 126.43,67.84 123.86,56.53C119.05,34.48 98.51,16.95 75.09,8.47C51.66,-0.01 25.35,-0.86 0,0.55C4.81,16.39 3.21,33.07 6.74,49.18C11.55,70.39 25.67,90.46 47.17,100.92C68.35,111.66 96.91,111.66 116.8,99.22L115.2,98.09Z " /></g><g opacity="1" transform="translate(7.7013703806759395 7.169936437835986)  rotate(0 54.6317780849438 47.462452934549454)"><path id="路径 82" fill-rule="evenodd" style="fill:#444076" transform="translate(-1.1368683772161603e-13 0)  rotate(0 54.6317780849438 47.462452934549454)" opacity="1" d="M100.76,85.27C103.97,86.96 106.86,82.44 107.5,79.05C108.78,69.15 110.39,58.97 108.14,49.08C103.97,29.85 86,14.59 65.46,7.24C44.92,-0.11 22.14,-0.68 0,0.45C4.17,14.02 2.89,28.72 5.78,42.86C9.95,61.52 22.14,78.77 41.07,88.09C60.01,97.42 84.39,97.42 102.04,86.68L100.76,85.27Z " /></g><g opacity="1" transform="translate(6.775460868650157 2.5363157782265944)  rotate(0 67.68076514887424 54.67625300910416)"><path id="路径 83" fill-rule="evenodd" style="fill:#28223D" transform="translate(1.9978232049591043 3.767162411922527)  rotate(0 66.68185354639476 52.79267180314279)" opacity="1" d="M63.75,55.88C82.68,73.98 103.86,94.9 129.53,105.36C132.42,106.49 134.99,103.1 132.1,101.4C119.58,94.05 107.39,86.98 96.16,78.22C85.25,69.45 74.98,60.12 64.71,50.51C45.14,32.42 25.56,12.91 1.17,0.19C0.53,-0.38 -0.43,0.47 0.21,1.03C23.32,17.72 43.53,36.66 63.75,55.88Z " /><path id="路径 84" fill-rule="evenodd" style="fill:#28223D" transform="translate(49.691273378424626 79.15782471424211)  rotate(0 24.031662074486874 4.326498568034911)" opacity="1" d="M25.04,3.11C17.34,1.98 9.32,0.28 1.61,0C-0.31,0 -0.63,2.54 1.29,2.83C9.32,4.81 17.98,5.37 26,6.5C33.06,7.35 40.76,9.61 47.82,8.2C48.14,8.2 48.14,7.63 47.82,7.63C41.4,4.24 32.42,4.24 25.04,3.11Z " /><path id="路径 85" fill-rule="evenodd" style="fill:#28223D" transform="translate(86.85268189579529 41.921506283747135)  rotate(0 5.972404768659758 22.616880939179776)" opacity="1" d="M3.92,1.33C3.28,-0.93 -0.57,-0.08 0.07,2.18C3.6,16.03 5.53,30.45 9.06,44.3C9.7,45.72 11.94,45.44 11.94,44.02C11.3,29.89 7.45,15.18 3.92,1.33Z " /><path id="路径 86" fill-rule="evenodd" style="fill:#28223D" transform="translate(24.905887934885527 63.5337360446963)  rotate(0 29.69550517236976 5.6916254866056475)" opacity="1" d="M34.1,6.01C22.87,5.16 12.28,3.47 2.01,0.07C0.09,-0.49 -0.88,2.34 1.05,2.9C9.71,6.01 18.7,7.71 28.33,8.56C38.27,9.4 48.22,10.82 58.49,11.38C59.45,11.38 59.77,10.54 58.81,9.97C51.43,6.58 42.44,6.58 34.1,6.01Z " /><path id="路径 87" fill-rule="evenodd" style="fill:#28223D" transform="translate(72.78476835647791 29.968586387434698)  rotate(0 4.502765076322269 21.9859947711488)" opacity="1" d="M3.55,1.13C3.23,-0.85 -0.3,0 0.02,1.97C1.95,15.55 3.23,29.96 6.76,43.25C7.08,44.38 9.01,44.1 9.01,42.97C8.68,29.12 5.48,14.98 3.55,1.13Z " /><path id="路径 88" fill-rule="evenodd" style="fill:#28223D" transform="translate(12.80393913061107 46.287662746267074)  rotate(0 26.342785801385382 5.8439305313937835)" opacity="1" d="M2.24,0.07C-0.01,-0.49 -0.97,2.34 1.28,2.9C17.32,6.86 34.33,10.25 51.02,11.67C52.94,11.95 53.26,9.4 51.66,9.12C35.29,6.29 18.61,3.75 2.24,0.07Z " /><path id="路径 89" fill-rule="evenodd" style="fill:#28223D" transform="translate(55.47728304181328 12.991962055772092)  rotate(0 3.907734637161762 22.253793510710477)" opacity="1" d="M5.46,21.5C4.81,14.71 4.49,7.93 3.21,1.14C2.89,-0.56 0,-0.27 0,1.42C0,8.49 1.28,15.84 2.25,22.91C3.21,29.98 3.53,37.33 6.42,44.11C6.42,44.68 7.7,44.68 7.7,43.83C8.34,36.48 6.1,28.85 5.46,21.5Z " /><path id="路径 90" fill-rule="evenodd" style="fill:#28223D" transform="translate(3.4008560156870544 30.224942373357067)  rotate(0 21.46552484953661 4.393142741123215)" opacity="1" d="M1.38,0.02C-0.23,-0.26 -0.55,2.28 1.05,2.57C14.21,5.39 28.97,8.5 42.45,8.79C43.09,8.79 43.09,7.66 42.45,7.37C29.61,3.41 14.85,1.44 1.38,0.02Z " /><path id="路径 91" fill-rule="evenodd" style="fill:#28223D" transform="translate(34.17262762342705 2.0715936698831)  rotate(0 4.80120717388424 18.187094579771227)" opacity="1" d="M3.01 0.19C2.37 -0.1 1.41 -0.1 0.77 0.47C0.713622 0.544877 0.659649 0.615331 0.608321 0.682333C0.0769816 1.37593 -0.17093 1.69954 0.13 2.73C0.32 3.07 0.62 3.4 0.97 3.62C1.98 5.38 1.77 9.48 2.05 11.21C2.69 14.89 3.01 18.56 3.66 22.52C4.3 26.48 3.66 33.55 7.51 36.37C8.79 36.09 10.07 35.53 9.43 34.68C7.83 31.57 8.15 25.91 7.51 22.52C7.19 19.13 6.54 15.74 6.22 12.34C6.15151 11.6743 6.14165 10.8273 6.13073 9.88759C6.0906 6.43712 6.03595 1.73834 3.01 0.19Z" /><path id="路径 92" fill-rule="evenodd" style="fill:#28223D" transform="translate(0 15.218258013813966)  rotate(0 13.098015536809308 3.0188043188992504)" opacity="1" d="M14.08,1.74C9.91,0.89 5.42,-0.24 1.25,0.04C-0.36,0.04 -0.36,1.74 0.93,2.31C5.42,3.72 10.55,4 15.05,4.85C18.57,5.42 22.1,6.26 25.96,5.98C26.28,5.7 26.28,5.42 25.96,5.42C22.43,3.15 17.93,2.59 14.08,1.74Z " /><path id="路径 93" fill-rule="evenodd" style="fill:#28223D" transform="translate(19.515032201330087 0)  rotate(0 2.9200332931506194 10.231449931266427)" opacity="1" d="M3.23,1.13C2.91,-0.85 -0.3,0 0.02,1.97C0.99,7.91 1.63,14.7 4.19,20.07C4.51,20.63 5.8,20.63 5.8,19.79C6.12,13.85 4.51,7.06 3.23,1.13Z " /></g></g><g opacity="1" transform="translate(1479.3048939548241 696.7305166403365)  rotate(0 70.44012604919693 89.4816753926701)"><path id="路径 94" fill-rule="evenodd" style="fill:#7A74C2" transform="translate(0 1.1368683772161603e-13)  rotate(0 70.27500472366727 89.48167539267007)" opacity="1" d="M14.12 91.32C18.93 78.31 30.81 67.01 31.13 67.29L35.94 72.38C32.73 61.63 44.92 47.78 44.92 47.78C48.78 48.35 51.98 51.17 51.98 51.17C53.91 35.91 71.56 22.9 71.56 22.9C78.3 22.05 79.9 32.23 79.9 32.23C79.9 32.23 88.24 10.18 90.81 12.16C93.38 14.14 99.8 20.92 99.8 20.92C100.12 13.01 111.99 5.09 111.99 5.09C117.77 5.94 118.73 12.44 118.73 12.44C127.39 3.39 135.42 0 135.42 0L129.32 14.7C132.85 13.29 140.55 15.83 140.55 15.83C140.55 24.6 123.22 35.62 123.22 35.62C129.32 33.93 139.27 39.3 139.27 39.3C138.62 46.65 109.74 60.22 109.74 60.22C121.94 55.13 129.64 61.63 129.64 61.63C128.04 71.25 104.61 81.71 104.61 81.71C113.27 82.55 118.09 85.66 118.09 85.66C116 98.32 90.09 104.8 80.53 106.77C86.89 106.26 90.17 109.98 90.17 109.98C85.68 121.29 63.54 128.64 52.63 133.73C37.87 140.51 23.43 146.45 13.48 159.17C9.67 164.21 1.45 174.79 0.04 178.84C3.54 168.41 5.14 157.15 5.78 146.17C7.7 126.94 7.06 110.54 14.12 91.32Z" /><path id="路径 95" fill-rule="evenodd" style="fill:#444076" transform="translate(18.611645086633416 0.28272251308885643)  rotate(0 61.134303505880226 76.759162303665)" opacity="1" d="M104.93,35.62C104.93,35.62 122.26,24.6 122.26,15.83C122.58,15.83 114.56,13.29 111.35,14.7L117.45,0C117.45,0 116.8,0.28 115.84,0.85C87.6,22.62 64.5,49.76 44.6,77.75C32.73,94.15 21.82,111.11 11.87,128.64C7.06,136.84 3.53,145.04 0,153.52C9.63,144.47 21.5,139.38 34.01,133.73C44.92,128.64 67.07,121.29 71.56,109.98C71.56,109.98 68.35,106.02 61.93,106.59C71.24,104.61 97.55,98.39 99.8,85.66C99.8,85.66 94.98,82.55 86.32,81.71C86.32,81.71 109.74,71.25 111.35,61.63C111.35,61.63 103.65,55.13 91.45,60.22C91.45,60.22 120.33,46.65 120.98,39.3C120.98,39.3 111.03,33.93 104.93,35.62Z " /></g><g opacity="1" transform="translate(1407.4179363425546 689.3797313000223)  rotate(0 39.427650015475024 98.6701570680627)"><path id="路径 96" fill-rule="evenodd" style="fill:#7A74C2" transform="translate(0 0)  rotate(0 39.427650015475024 98.67015706806271)" opacity="1" d="M0.01 54C0.01 54 -0.63 73.23 9.96 83.97C9.96 83.97 6.1 84.25 3.22 86.23C3.22 86.23 6.43 102.35 16.69 107.15L9.96 106.87C9.63 106.87 10.92 121.29 18.3 132.6C28.89 148.99 41.72 158.89 55.2 172.18C62.26 180.38 69.64 188.58 75.74 197.34C73.49 193.95 69.96 182.07 68.68 176.42C65.19 163.602 68.2903 151.951 71.5301 139.776C71.8643 138.52 72.1999 137.259 72.53 135.99C72.9735 134.281 73.5604 132.312 74.1981 130.171C77.2554 119.91 81.4824 105.723 76.7 97.54C76.7 97.54 71.95 97.34 68.72 101.29C72.91 93.96 83.08 73.89 74.77 64.74C74.77 64.74 69.64 65.87 63.86 70.68C63.86 70.68 69.64 49.48 63.54 42.41C63.54 42.41 53.92 43.26 50.71 54C50.71 54 57.45 27.42 52.31 22.34C52.31 22.34 42.37 25.16 40.12 29.97C40.12 29.97 41.72 12.16 35.31 6.79C35.31 6.79 28.89 10.18 27.92 13.01L20.22 0C20.22 0 17.98 7.07 19.9 18.09C19.9 18.09 14.13 14.7 10.28 17.53C10.28 17.53 9.31 29.97 15.09 35.06C15.09 35.06 6.1 34.77 3.22 35.34C0.33 35.62 12.2 54.57 12.2 54.57C12.2 54.57 3.54 49.19 0.01 54Z" /><path id="路径 97" fill-rule="evenodd" style="fill:#444076" transform="translate(19.26092667765124 0.28272251308885643)  rotate(0 29.7971866766494 84.81675392670162)" opacity="1" d="M36.26,146.73C39.79,154.65 43.96,162.28 48.45,169.63C47.17,158.04 50.38,147.3 53.27,135.99C55.83,126.09 63.22,107.43 57.44,97.54C57.44,97.54 52.63,97.26 49.1,101.5C53.27,94.43 63.86,74.07 55.51,64.46C55.51,64.46 50.38,65.59 44.6,70.4C44.6,70.4 50.38,49.19 44.28,42.13C44.28,42.13 34.66,42.97 31.45,53.72C31.45,53.72 38.19,27.14 33.05,22.05C33.05,22.05 23.1,24.88 20.86,29.69C20.86,29.69 22.46,11.87 16.04,6.5C15.4,6.5 8.66,9.9 8.02,13.01L0.32,0C0.32,0 0,0.57 0,1.7C0,33.08 7.06,64.46 16.69,94.43C22.14,112.24 28.88,129.49 36.26,146.73Z " /></g><g opacity="1" transform="translate(1312.7627594727085 767.9765899387658)  rotate(0 90.17021154041336 59.93717277486906)"><path id="路径 98" fill-rule="evenodd" style="fill:#7A74C2" transform="translate(4.547473508864641e-13 0.2827225130889701)  rotate(0 90.17021154041316 59.795811518324626)" opacity="1" d="M4.81 23.47C5.78 18.94 12.51 18.09 12.51 18.09C3.21 10.74 0 3.96 0 3.96L15.08 9.33C13.8 6.5 16.37 0 16.37 0C25.35 0.28 36.26 14.7 36.26 14.7C34.66 9.61 40.11 1.41 40.11 1.41C47.49 1.98 60.97 26.29 60.97 26.29C56.16 16.4 62.57 9.9 62.57 9.9C72.2 11.31 82.47 31.1 82.47 31.1C83.43 23.75 86.64 19.79 86.64 19.79C99.74 21.67 105.93 44.35 107.64 51.87C107.02 46.13 111.03 43.26 111.03 43.26C122.26 47.21 129.64 65.87 134.77 74.92C141.83 87.64 147.61 99.52 160.45 108C165.47 111.32 175.71 118.15 180.06 119.51C169.55 116.46 158.42 115.06 146.97 113.65C127.71 111.68 111.03 111.96 91.45 106.02C77.98 102.06 66.75 91.88 67.07 91.6L72.2 87.64C61.29 90.19 47.49 80.01 47.49 80.01C48.13 76.62 51.02 74.07 51.02 74.07C35.3 72.38 22.46 57.39 22.46 57.39C21.82 51.74 32.09 50.61 32.09 50.61C32.09 50.61 9.95 43.26 11.87 41.28C13.8 39.3 20.86 33.93 20.86 33.93C12.84 33.36 4.81 23.47 4.81 23.47ZM180.125 119.53C180.103 119.524 180.081 119.517 180.06 119.51C180.082 119.517 180.104 119.523 180.125 119.53ZM180.125 119.53C180.196 119.55 180.271 119.567 180.34 119.59C180.27 119.574 180.2 119.553 180.125 119.53Z" /><path id="路径 99" fill-rule="evenodd" style="fill:#444076" transform="translate(0 -1.1368683772161603e-13)  rotate(0 77.49503945555101 51.87958115183252)" opacity="1" d="M0,4.24C0,4.24 0.32,4.81 0.96,5.65C22.78,29.4 50.06,48.91 78.3,65.87C94.98,75.77 111.99,85.1 129.64,93.58C137.98,97.54 146.33,100.65 154.99,103.76C146.01,95.84 140.87,85.66 135.09,75.2C129.96,66.16 122.58,47.5 111.35,43.54C111.35,43.54 107.5,46.37 107.82,51.74C105.89,43.82 99.8,21.77 86.96,19.79C86.96,19.79 83.75,23.75 82.79,31.1C82.79,31.1 72.52,11.31 62.89,9.9C62.89,9.9 56.48,16.4 61.29,26.29C61.29,26.29 47.81,1.98 40.43,1.41C40.43,1.41 34.98,9.61 36.58,14.7C36.58,14.7 25.67,0.28 16.69,0C16.37,0.28 13.48,6.79 15.08,9.61L0,4.24Z " /></g></g><g opacity="1" transform="translate(0 0.8977556109725686)  rotate(0 957 539.5511221945137)"><g id="undefined" filter="url(#filter_378)"></g><g opacity="1" transform="translate(-4.6629367034256575e-14 0.10224438902743138)  rotate(0 956.7348245827133 539.5759162303665)"></g><path id="路径 100" fill-rule="evenodd" style="fill:#FFFFFF" transform="translate(1242.2073544297382 179.86077317787513)  rotate(0 205.83401269564865 50.633824610811786)" opacity="1" d="M135.05,15.6C128.96,16.17 123.18,14.47 117.41,13.06C88.2,5.99 55.15,12.49 32.37,29.74C9.27,46.98 -2.93,74.97 0.6,101.27L47.77,99.57C168.75,91.66 289.4,83.46 410.06,75.26C418.08,50.94 394.98,23.8 366.42,17.02C337.86,10.23 307.05,20.13 283.63,35.96C253.46,1.18 193.46,-10.41 149.82,10.23C145,12.49 140.51,15.04 135.05,15.6Z " /></g><g opacity="1" transform="translate(0 0.8977556109725686)  rotate(0 960 539.5511221945137)"><g id="undefined" filter="url(#filter_386)"></g><g opacity="1" transform="translate(-4.677554059862729e-14 0.10224438902743138)  rotate(0 959.7339933118127 539.5759162303665)"></g><path id="路径 101" fill-rule="evenodd" style="fill:#FFFFFF" transform="translate(1722.8409117644812 281.0754328637389)  rotate(0 206.37093452953275 50.633824610811786)" opacity="1" d="M32.46,29.74C9.61,46.98 -2.95,74.97 0.59,101.27L47.59,100.14C168.94,92.22 289.98,84.02 411.01,75.82C419.38,50.94 396.2,23.8 367.55,17.02C338.91,10.23 308,20.13 284.5,35.96C254.25,1.18 194.05,-10.41 150.27,10.23C145.45,12.49 140.94,15.04 135.47,15.6C129.35,16.17 123.56,14.47 117.76,13.06C88.47,5.99 55.31,12.49 32.46,29.74Z " /></g><g opacity="1" transform="translate(246 804.3890274314215)  rotate(0 835.5 137.8054862842893)"><g opacity="1" transform="translate(-245.55025200315964 -804.4518546565523)  rotate(0 1.6044521626408075 1.4136125654450264)"></g><path id="路径 103" fill-rule="evenodd" style="fill:#FFCAA6" transform="translate(0.5727097459400454 -0.3890274314214821)  rotate(0 835.1173506545402 137.96858638743456)" opacity="1" d="M906.84,81.71C732.59,105.74 559.63,137.12 389.56,177.27C315.11,194.8 240.35,211.48 165.58,227.87C109.1,240.03 52.63,254.17 0,275.94L1670.23,275.94L1670.23,0C1591.94,6.79 1513.32,14.42 1434.7,22.62C1258.53,40.71 1082.04,57.39 906.84,81.71Z " /></g><g opacity="1" transform="translate(0 0.8977556109725686)  rotate(0 957 539.5511221945137)"><g opacity="1" transform="translate(-4.6629367034256575e-14 0.10224438902743138)  rotate(0 956.7348245827133 539.5759162303665)"></g><g opacity="1" transform="translate(1653.8692892501435 866.3640244937395)  rotate(0 152.26251023461296 174.8992146596859)"><g opacity="1" transform="translate(112.78630181630501 30.451345813709736)  rotate(0 56.79691397815315 159.6735417528309)"><path id="路径 511" fill-rule="evenodd" style="fill:#343952" transform="translate(2.2737367544323206e-13 0)  rotate(0 56.79691397815315 159.6735417528309)" opacity="1" d="M113.44,2.63C114.4,0.93 110.55,-1.05 108.95,0.65C97.72,10.83 90.02,23.55 81.99,35.14C73.65,47.3 65.95,59.74 58.89,72.46C44.45,98.19 32.58,124.76 23.27,151.62C4.34,206.19 -3.04,261.6 1.13,317.86C0.81,319.84 4.98,319.84 4.98,317.86C3.38,262.73 12.04,206.47 30.65,153.04C39.64,127.03 51.19,101.58 64.99,76.7C72.37,63.7 80.39,50.69 88.73,37.97C96.76,26.38 107.34,14.78 113.44,2.63Z " /></g><g opacity="1" transform="translate(108.47146234672482 14.136125654450211)  rotate(0 28.55400041890391 50.890052356020945)"><g opacity="1" transform="translate(0 0)  rotate(0 28.55400041890391 50.890052356020945)"><path id="路径 512" fill-rule="evenodd" style="fill:#888AC2" transform="translate(0 0)  rotate(0 28.55400041890391 50.890052356020945)" opacity="1" d="M56.15,99.24C56.47,80.58 56.79,61.92 50.05,43.82C43.31,25.73 28.55,8.48 5.77,0C1.27,19.79 -3.22,40.43 3.2,60.22C9.62,80.01 29.51,98.67 57.11,101.78L56.15,99.24Z " /></g><g opacity="1" transform="translate(19.530531990001464 28.41361256544485)  rotate(0 15.817482017547148 29.386853195774627)"><path id="路径 513" fill-rule="evenodd" style="fill:#343952" transform="translate(0 0)  rotate(0 15.817482017547148 29.386853195774627)" opacity="1" d="M23.78,57.25C27.31,60.93 34.37,57.25 30.52,53.58C14.15,38.31 5.81,20.5 3.88,1.27C3.56,-0.42 0.03,-0.42 0.03,1.27C-0.61,21.35 8.06,40.57 23.78,57.25Z " /></g></g><g opacity="1" transform="translate(60.006510882767316 75.48691099476423)  rotate(0 43.48065360756591 44.2238757844654)"><g opacity="1" transform="translate(0 -1.1368683772161603e-13)  rotate(0 43.48065360756591 44.2238757844654)"><path id="路径 514" fill-rule="evenodd" style="fill:#888AC2" transform="translate(0 0)  rotate(0 43.48065360756591 44.2238757844654)" opacity="1" d="M85.04,85.95C78.62,67.85 71.88,49.76 58.72,33.64C45.57,17.53 25.03,3.68 0,0C2.89,20.07 6.1,40.71 19.57,58.52C33.05,76.34 59.36,90.47 86.96,88.21L85.04,85.95Z " /></g><g opacity="1" transform="translate(24.310045914975944 24.157873556622462)  rotate(0 25.300749059753247 25.953423771187754)"><path id="路径 515" fill-rule="evenodd" style="fill:#343952" transform="translate(0 0)  rotate(0 25.300749059753247 25.953423771187754)" opacity="1" d="M43.4,51.05C48.21,53.87 53.67,49.07 48.53,46.24C27.35,34.93 12.59,19.1 3.61,1C2.97,-0.69 -0.56,-0.13 0.08,1.85C6.82,21.36 22.22,38.04 43.4,51.05Z " /></g></g><g opacity="1" transform="translate(23.425001574555836 141.36125654450223)  rotate(0 54.07003788099527 38.230872449543575)"><g opacity="1" transform="translate(2.2737367544323206e-13 0)  rotate(0 54.07003788099527 38.230872449543575)"><path id="路径 516" fill-rule="evenodd" style="fill:#888AC2" transform="translate(0 0)  rotate(0 54.07003788099527 38.230872449543575)" opacity="1" d="M105.89,72.66C94.66,55.98 83.43,38.73 66.42,24.88C49.42,11.03 25.67,0.28 0,0C8.02,19.23 16.69,39.3 34.34,54.85C51.98,70.4 81.51,80.86 108.14,74.64L105.89,72.66Z " /></g><g opacity="1" transform="translate(30.30717408141254 20.053205958948865)  rotate(0 31.12306913372159 22.411141207704137)"><path id="路径 517" fill-rule="evenodd" style="fill:#343952" transform="translate(0 -1.1368683772161603e-13)  rotate(0 31.12306913372159 22.411141207704137)" opacity="1" d="M55.69,44.41C60.5,46.39 65,40.73 60.18,39.04C35.8,30.55 17.18,17.27 3.71,0.59C2.42,-0.83 -0.79,0.59 0.18,2C11.73,20.38 31.62,34.79 55.69,44.41Z " /></g></g><g opacity="1" transform="translate(0 207.23148717634638)  rotate(0 60.00651088276615 34.15108243028555)"><g opacity="1" transform="translate(0 2.2737367544323206e-13)  rotate(0 60.00651088276615 34.15108243028555)"><path id="路径 518" fill-rule="evenodd" style="fill:#888AC2" transform="translate(0 -1.1368683772161603e-13)  rotate(0 60.00651088276615 34.15108243028555)" opacity="1" d="M117.13,62.77C103.33,47.22 89.21,31.39 69.95,18.95C50.7,6.79 25.35,-1.69 0,0.29C11.23,18.95 23.1,37.89 43.32,51.74C63.54,65.6 94.66,73.23 120.01,64.75L117.13,62.77Z " /></g><g opacity="1" transform="translate(33.694522625187574 17.159963088123504)  rotate(0 34.208798527436244 19.93960079273591)"><path id="路径 519" fill-rule="evenodd" style="fill:#343952" transform="translate(0 1.1368683772161603e-13)  rotate(0 34.208798527436244 19.93960079273591)" opacity="1" d="M63.21,39.67C68.03,41.08 70.92,34.87 65.46,33.73C40.11,27.51 19.57,15.92 3.53,0.37C1.92,-0.76 -0.96,0.94 0.32,2.07C15.08,19.32 37.22,31.76 63.21,39.67Z " /></g></g><g opacity="1" transform="translate(158.19898323638427 79.05116206400544)  rotate(0 73.16301861642086 22.123961063525883)"><g opacity="1" transform="translate(2.2737367544323206e-13 1.1368683772161603e-13)  rotate(0 73.16301861642086 22.123961063525883)"><path id="路径 520" fill-rule="evenodd" style="fill:#888AC2" transform="translate(0 0)  rotate(0 73.16301861642086 22.123961063525883)" opacity="1" d="M77.01,41.11C103.33,34.89 125.15,21.32 146.33,8.03C124.51,-1.59 96.59,-1.87 71.88,3.5C47.17,8.88 25.35,18.77 3.53,28.67L0,29.23C17.97,44.78 50.7,47.33 77.01,41.11Z " /></g><g opacity="1" transform="translate(22.100469362939066 12.178219164948018)  rotate(0 41.523972985947594 8.576616270538448)"><path id="路径 521" fill-rule="evenodd" style="fill:#343952" transform="translate(0 0)  rotate(0 41.523972985947594 8.576616270538448)" opacity="1" d="M4.21,10.83C-1.24,10.27 -1.56,16.77 4.21,17.05C31.81,17.9 58.76,13.38 82.19,2.35C84.11,1.79 82.51,-0.48 80.26,0.09C56.52,9.14 30.85,13.1 4.21,10.83Z " /></g></g><g opacity="1" transform="translate(148.57227026053965 134.612514484925)  rotate(0 73.96524469774127 20.82145411452867)"><g opacity="1" transform="translate(0 -2.2737367544323206e-13)  rotate(0 73.96524469774127 20.82145411452867)"><path id="路径 522" fill-rule="evenodd" style="fill:#888AC2" transform="translate(0 0)  rotate(0 73.96524469774127 20.82145411452867)" opacity="1" d="M75.41,39.83C102.36,35.02 125.79,22.86 147.93,10.71C127.07,-0.32 99.48,-2.02 74.45,1.94C49.42,5.62 26.31,14.38 3.53,23.15L0,23.71C16.37,40.11 48.45,44.63 75.41,39.83Z " /></g><g opacity="1" transform="translate(22.010918510537067 12.595924335651716)  rotate(0 42.12120817205075 6.6895630779599164)"><path id="路径 523" fill-rule="evenodd" style="fill:#343952" transform="translate(0 0)  rotate(0 42.12120817205075 6.6895630779599164)" opacity="1" d="M5.26,6.59C-0.83,5.74 -2.12,12.25 3.98,12.53C31.26,15.07 58.85,11.96 83.24,2.35C85.49,1.79 83.56,-0.48 81.32,0.09C56.93,7.44 31.26,10.27 5.26,6.59Z " /></g></g><g opacity="1" transform="translate(135.73665295941305 194.4810811916883)  rotate(0 74.28613513026927 20.375332956265606)"><g opacity="1" transform="translate(0 0)  rotate(0 74.28613513026927 20.375332956265606)"><path id="路径 524" fill-rule="evenodd" style="fill:#888AC2" transform="translate(0 -1.1368683772161603e-13)  rotate(0 74.28613513026927 20.375332956265606)" opacity="1" d="M74.77,39.33C102.04,35.09 125.47,23.22 148.57,11.62C128.36,0.31 100.44,-1.95 75.41,1.45C50.38,4.84 26.95,13.04 3.85,21.24L0,21.8C15.72,38.48 47.81,43.57 74.77,39.33Z " /></g><g opacity="1" transform="translate(21.892407935391475 12.655016074763353)  rotate(0 42.34090867588738 6.195710619586675)"><path id="路径 525" fill-rule="evenodd" style="fill:#343952" transform="translate(0 -1.1368683772161603e-13)  rotate(0 42.34090867588738 6.195710619586675)" opacity="1" d="M5.38,5.19C-0.07,4.34 -2.32,10.56 3.14,11.13C30.73,14.24 58.33,11.69 83.68,2.64C85.93,1.51 84,-0.47 81.76,0.1C57.05,7.17 31.38,9.43 5.38,5.19Z " /></g></g><g opacity="1" transform="translate(113.91610354749787 254.85605358116288)  rotate(0 74.60702556279753 19.029161993148293)"><g opacity="1" transform="translate(0 2.2737367544323206e-13)  rotate(0 74.60702556279753 19.029161993148293)"><path id="路径 526" fill-rule="evenodd" style="fill:#888AC2" transform="translate(0 -1.1368683772161603e-13)  rotate(0 74.60702556279753 19.029161993148293)" opacity="1" d="M71.56,37.76C99.16,35.78 124.83,26.17 149.21,16.84C130.92,3.84 103.65,-0.97 78.3,0.16C52.63,1.29 28.24,7.51 4.17,13.73L0,13.73C12.84,31.82 43.64,39.74 71.56,37.76Z " /></g><g opacity="1" transform="translate(22.30470149267012 12.108896663136193)  rotate(0 42.43380967834627 5.006268282256409)"><path id="路径 527" fill-rule="evenodd" style="fill:#343952" transform="translate(0 -1.1368683772161603e-13)  rotate(0 42.43380967834627 5.006268282256409)" opacity="1" d="M5.29,0.21C0.16,-1.21 -2.41,5.01 3.05,6.14C29.68,11.52 57.6,11.52 83.59,4.73C85.84,4.17 84.87,1.62 82.63,1.9C56.63,6.71 30.64,6.71 5.29,0.21Z " /></g></g><g opacity="1" transform="translate(180.41173206583426 0)  rotate(0 44.40294131734274 45.51832460732982)"><g opacity="1" transform="translate(2.2737367544323206e-13 0)  rotate(0 44.40294131734274 45.51832460732982)"><path id="路径 528" fill-rule="evenodd" style="fill:#888AC2" transform="translate(0 0)  rotate(0 44.40294131734274 45.51832460732982)" opacity="1" d="M8.91,88.77C29.45,77.75 50.63,66.72 66.35,52.02C82.08,37.32 92.02,18.38 87.85,0C63.14,9.33 37.79,18.94 19.82,34.49C1.85,50.04 -6.81,73.23 6.35,91.04L8.91,88.77Z " /></g><g opacity="1" transform="translate(15.374730119084916 25.804952914747446)  rotate(0 25.536497229609004 25.927759403746467)"><path id="路径 529" fill-rule="evenodd" style="fill:#343952" transform="translate(0 0)  rotate(0 25.536497229609004 25.927759403746467)" opacity="1" d="M0.28,47.99C-1.65,51.66 7.02,53.64 8.62,49.68C15.68,30.74 30.44,15.19 50.66,2.47C51.94,1.34 50.02,-0.64 48.09,0.21C25.31,12.08 9.26,28.76 0.28,47.99Z " /></g></g></g><g opacity="1" transform="translate(1101.9377453017064 963.3378464832687)  rotate(0 125.12377667487331 104.89005235602095)"><g opacity="1" transform="translate(40.65136403716542 33.02614823797251)  rotate(0 104.79809465629054 74.39438540106282)"><path id="路径 530" fill-rule="evenodd" style="fill:#343952" transform="translate(0 0)  rotate(0 104.79809465629054 74.39438540106282)" opacity="1" d="M207.72,148.76C209.32,149.05 210.28,146.79 209,146.22C167.61,132.37 128.14,112.58 93.16,87.7C76.15,75.54 60.11,62.25 45.35,47.83C37.65,40.2 29.94,32 22.88,23.8C16.15,16.17 10.69,7.12 2.99,0.34C2.03,-0.8 -0.54,1.18 0.1,2.6C4.59,11.93 11.97,19.56 18.71,27.19C25.77,35.11 32.83,43.03 40.53,50.38C55.94,65.64 72.3,79.5 89.95,91.94C125.57,117.38 164.72,136.32 207.72,148.76Z " /></g><g opacity="1" transform="translate(0 78.41100736170608)  rotate(0 44.764215337678586 15.911391961690686)"><g opacity="1" transform="translate(0 0)  rotate(0 44.764215337678586 15.911391961690686)"><path id="路径 531" fill-rule="evenodd" style="fill:#888AC2" transform="translate(0 0)  rotate(0 44.764215337678586 15.911391961690686)" opacity="1" d="M87.28,11.21C73.48,6.12 59.36,1.03 44.28,0.19C29.2,-0.95 12.19,3.01 0,14.04C13.8,21.96 27.92,30.15 44.28,31.57C60.65,33.26 79.9,26.48 89.53,11.49L87.28,11.21Z " /></g><g opacity="1" transform="translate(25.065108229699717 10.117796294841582)  rotate(0 25.36884583488982 4.15773076648058)"><path id="路径 532" fill-rule="evenodd" style="fill:#343952" transform="translate(0 2.2737367544323206e-13)  rotate(0 25.36884583488982 4.15773076648058)" opacity="1" d="M48.42,5.05C51.95,3.92 51.31,-1.17 47.46,0.25C31.73,5.62 16.33,5.62 1.57,1.66C0.29,1.38 -0.68,3.64 0.61,3.92C15.37,9.58 32.05,9.58 48.42,5.05Z " /></g></g><g opacity="1" transform="translate(31.44726238776002 113.0518749990755)  rotate(0 44.28287968888623 16.29426150925887)"><g opacity="1" transform="translate(0 -4.547473508864641e-13)  rotate(0 44.28287968888623 16.29426150925887)"><path id="路径 533" fill-rule="evenodd" style="fill:#888AC2" transform="translate(0 4.547473508864641e-13)  rotate(0 44.28287968888623 16.29426150925887)" opacity="1" d="M86.32,0.89C71.24,0.04 55.83,-1.09 40.43,2.3C25.03,5.41 9.31,13.61 0,27.18C15.72,30.85 32.09,34.53 48.78,31.42C65.46,28.31 83.11,17 88.57,0.32L86.32,0.89Z " /></g><g opacity="1" transform="translate(24.719460547279596 3.3768288490023224)  rotate(0 25.430895523184642 8.494484128409892)"><path id="路径 534" fill-rule="evenodd" style="fill:#343952" transform="translate(0 0)  rotate(0 25.430895523184642 8.494484128409892)" opacity="1" d="M49.09,4.86C52.62,2.88 50.37,-1.64 46.84,0.62C32.72,9.95 17,14.19 1.27,14.47C-0.01,14.19 -0.65,16.45 0.95,16.73C17.32,18.15 33.68,13.62 49.09,4.86Z " /></g></g><g opacity="1" transform="translate(70.27500472366773 136.27225130890008)  rotate(0 42.197091877453246 21.42293632165094)"><g opacity="1" transform="translate(4.547473508864641e-13 2.2737367544323206e-13)  rotate(0 42.197091877453246 21.42293632165094)"><path id="路径 535" fill-rule="evenodd" style="fill:#888AC2" transform="translate(0 -2.2737367544323206e-13)  rotate(0 42.197091877453246 21.42293632165094)" opacity="1" d="M81.83,0.85C66.42,2.83 50.7,4.81 35.94,11.03C21.18,17.25 7.06,27.99 0,42.69C16.69,42.97 33.69,43.54 50.06,37.32C66.42,31.1 81.83,16.96 84.39,0L81.83,0.85Z " /></g><g opacity="1" transform="translate(23.782653792643032 5.544553403512282)  rotate(0 24.297443703681445 12.636100261594645)"><path id="路径 536" fill-rule="evenodd" style="fill:#343952" transform="translate(0 2.2737367544323206e-13)  rotate(0 24.297443703681445 12.636100261594645)" opacity="1" d="M47.46,4.63C50.34,2.37 47.13,-1.59 44.57,0.68C32.05,12.55 16.97,19.62 0.93,23.01C-0.36,23.29 -0.36,25.27 1.25,25.27C17.93,23.29 33.98,15.66 47.46,4.63Z " /></g></g><g opacity="1" transform="translate(113.27432268244092 157.75916230366454)  rotate(0 39.95085884975607 26.01047120418845)"><g opacity="1" transform="translate(0 2.2737367544323206e-13)  rotate(0 39.95085884975607 26.01047120418845)"><path id="路径 537" fill-rule="evenodd" style="fill:#888AC2" transform="translate(0 -2.2737367544323206e-13)  rotate(0 39.95085884975607 26.01047120418845)" opacity="1" d="M77.66,1.13C62.25,5.09 46.53,8.76 32.41,16.68C18.29,24.31 5.13,36.75 0,52.02C16.69,50.61 34.01,48.63 49.74,40.71C65.46,32.8 79.58,16.96 79.9,0L77.66,1.13Z " /></g><g opacity="1" transform="translate(22.286996444901206 7.0777341404025265)  rotate(0 23.27497187390322 15.166002091814804)"><path id="路径 538" fill-rule="evenodd" style="fill:#343952" transform="translate(2.2737367544323206e-13 -2.2737367544323206e-13)  rotate(0 23.27497187390322 15.166002091814804)" opacity="1" d="M45.74,3.95C48.31,1.4 44.14,-1.71 41.89,1.12C30.66,14.13 16.54,22.89 0.82,28.26C-0.47,28.55 -0.15,30.81 1.14,30.24C18.15,26.28 33.23,16.67 45.74,3.95Z " /></g></g><g opacity="1" transform="translate(80.15787274566696 1.9790575916221087)  rotate(0 15.748724139577604 45.09424083769638)"><g opacity="1" transform="translate(0 0)  rotate(0 15.748724139577604 45.09424083769638)"><path id="路径 539" fill-rule="evenodd" style="fill:#888AC2" transform="translate(0 2.2737367544323206e-13)  rotate(0 15.748724139577604 45.09424083769638)" opacity="1" d="M30.87,48.91C33.12,31.95 28.94,15.83 24.45,0C11.3,10.18 3.92,26.01 1.35,41.56C-1.22,57.11 0.39,72.38 1.99,87.64L1.67,90.19C18.03,83.97 28.62,65.87 30.87,48.91Z " /></g><g opacity="1" transform="translate(3.5745553752374235 25.388088551021383)  rotate(0 7.634984438603569 25.697051490588628)"><path id="路径 540" fill-rule="evenodd" style="fill:#343952" transform="translate(0 4.547473508864641e-13)  rotate(0 7.634984438603569 25.697051490588628)" opacity="1" d="M0.34,48.12C-1.26,50.95 3.23,52.93 4.83,49.82C12.86,34.27 16.71,17.3 14.78,0.91C14.78,-0.51 12.53,-0.23 12.53,1.47C12.86,17.59 9.33,33.42 0.34,48.12Z " /></g></g><g opacity="1" transform="translate(116.48322700772246 22.052356020941716)  rotate(0 16.858743727807575 44.52879581151831)"><g opacity="1" transform="translate(0 6.821210263296962e-13)  rotate(0 16.858743727807575 44.52879581151831)"><path id="路径 541" fill-rule="evenodd" style="fill:#888AC2" transform="translate(0 -6.821210263296962e-13)  rotate(0 16.858743727807575 44.52879581151831)" opacity="1" d="M32.09,49.76C35.62,32.8 32.73,16.12 29.84,0C16.37,9.05 7.7,24.6 3.85,40.15C0,55.7 0.32,71.25 0.96,86.51L0,89.06C16.69,83.97 28.56,66.72 32.09,49.76Z " /></g><g opacity="1" transform="translate(3.2362352069644658 25.02993886827312)  rotate(0 9.158620158677234 25.328051892766563)"><path id="路径 542" fill-rule="evenodd" style="fill:#343952" transform="translate(0 3.410605131648481e-13)  rotate(0 9.158620158677234 25.328051892766563)" opacity="1" d="M0.61,46.78C-1.63,49.89 2.86,52.44 4.79,49.04C13.77,33.78 18.91,17.38 18.26,0.7C18.26,-0.43 16.02,-0.15 16.02,1.26C15.05,17.38 10.24,32.93 0.61,46.78Z " /></g></g><g opacity="1" transform="translate(155.9527502086862 45.23560209423965)  rotate(0 17.389379382288737 44.24607329842934)"><g opacity="1" transform="translate(0 0)  rotate(0 17.389379382288737 44.24607329842934)"><path id="路径 543" fill-rule="evenodd" style="fill:#888AC2" transform="translate(0 0)  rotate(0 17.389379382288737 44.24607329842934)" opacity="1" d="M32.73,49.76C36.58,32.8 34.34,16.12 31.45,0C17.65,8.76 8.66,24.03 4.49,39.58C0.32,55.13 0.32,70.68 0.32,86.23L0,88.49C16.69,83.97 28.88,66.72 32.73,49.76Z " /></g><g opacity="1" transform="translate(3.845445266339766 24.964344427671676)  rotate(0 9.789778154108136 25.484893831272274)"><path id="路径 544" fill-rule="evenodd" style="fill:#343952" transform="translate(0 0)  rotate(0 9.789778154108136 25.484893831272274)" opacity="1" d="M0.65,46.85C-1.6,49.67 2.57,52.78 4.5,49.67C14.12,34.41 19.58,18.01 19.58,1.05C19.26,-0.65 17.01,-0.08 17.01,1.33C15.73,17.44 10.59,32.99 0.65,46.85Z " /></g></g><g opacity="1" transform="translate(189.32535519161524 75.2041884816748)  rotate(0 21.113996498153426 42.549738219895325)"><g opacity="1" transform="translate(0 0)  rotate(0 21.113996498153426 42.549738219895325)"><path id="路径 545" fill-rule="evenodd" style="fill:#888AC2" transform="translate(0 0)  rotate(0 21.113996498153426 42.549738219895325)" opacity="1" d="M36.9,50.32C43,33.93 42.36,16.68 42.04,0C27.6,7.07 16.69,21.49 10.91,36.47C4.81,51.46 3.21,67.29 1.28,82.84L0,85.1C16.69,82.55 30.81,66.72 36.9,50.32Z " /></g><g opacity="1" transform="translate(5.416985163037907 23.639743062152547)  rotate(0 12.373357747304729 24.5051357442722)"><path id="路径 546" fill-rule="evenodd" style="fill:#343952" transform="translate(2.2737367544323206e-13 2.2737367544323206e-13)  rotate(0 12.373357747304729 24.5051357442722)" opacity="1" d="M0.68,45.06C-1.57,47.61 2.28,50.72 4.53,47.89C15.44,34.04 23.14,17.92 24.75,0.96C24.75,-0.17 22.82,-0.46 22.5,0.96C19.29,17.36 12.23,32.34 0.68,45.06Z " /></g></g><g opacity="1" transform="translate(30.16370065764727 -5.684341886080801e-13)  rotate(0 23.104111142027588 35.84514191367735)"><g opacity="1" transform="translate(0 1.1368683772161603e-13)  rotate(0 23.104111142027588 35.84514191367735)"><path id="路径 547" fill-rule="evenodd" style="fill:#888AC2" transform="translate(0 -1.1368683772161603e-13)  rotate(0 23.104111142027588 35.84514191367735)" opacity="1" d="M44.92,69.27C42.36,54.28 39.47,39.3 32.73,26.29C26.31,13.29 14.76,2.26 0,0C0.32,16.68 0.96,33.93 7.7,48.35C14.76,63.05 29.52,74.07 46.21,71.25L44.92,69.27Z " /></g><g opacity="1" transform="translate(13.12522618631192 19.537193659704144)  rotate(0 13.531843356484922 21.15259505214878)"><path id="路径 548" fill-rule="evenodd" style="fill:#343952" transform="translate(0 0)  rotate(0 13.531843356484922 21.15259505214878)" opacity="1" d="M22.81,41.81C25.06,43.79 28.59,39.27 26.34,37.57C14.15,28.53 6.45,15.8 2.28,0.82C1.96,-0.59 -0.29,-0.03 0.03,1.38C2.6,17.78 10.94,31.35 22.81,41.81Z " /></g></g></g><g opacity="1" transform="translate(1420.798678380215 977.4739721377186)  rotate(0 57.68761166134735 80.17577150590964)"><g opacity="1" transform="translate(0 -4.547473508864641e-13)  rotate(0 57.68761166134735 68.81992842217029)"><path id="路径 549" fill-rule="evenodd" style="fill:#888AC2" transform="translate(0 -2.2737367544323206e-13)  rotate(0 57.68761166134735 68.81992842217029)" opacity="1" d="M27.06,132.88C26.1,136.84 33.16,138.25 37.65,137.4C51.13,135.14 64.92,132.88 76.8,126.94C99.9,115.35 113.06,91.88 114.98,68.42C117.23,44.95 109.53,21.77 99.58,0C83.21,9.33 63.64,13.57 46.63,21.77C24.17,32.8 6.52,52.02 1.39,74.07C-3.75,96.13 5.56,121.01 26.1,134.58L27.06,132.88Z " /></g><g opacity="1" transform="translate(7.543418912248626 9.329842931936923)  rotate(0 50.35535712499362 60.01704519163543)"><path id="路径 550" fill-rule="evenodd" style="fill:#444076" transform="translate(0 -3.410605131648481e-13)  rotate(0 50.35535712499362 60.01704519163543)" opacity="1" d="M23.69,115.92C22.72,119.59 29.14,120.44 32.99,119.87C44.54,117.9 56.42,115.92 67.01,110.83C87.22,100.65 98.78,80.01 100.38,59.65C102.31,39.3 95.57,18.94 86.9,0C72.46,8.2 55.46,11.59 40.69,18.94C21.12,28.55 5.72,45.24 1.22,64.46C-3.27,83.97 4.75,105.46 22.72,117.33L23.69,115.92Z " /></g><g opacity="1" transform="translate(19.34225496510021 9.869794885013448)  rotate(0 45.15293664684241 75.24087406340288)"><path id="路径 551" fill-rule="evenodd" style="fill:#28223D" transform="translate(0 0)  rotate(0 38.6749610401803 75.24087406340288)" opacity="1" d="M33.39,75.8C19.59,97.85 3.55,122.73 0.02,148.17C-0.31,151 4.51,151.28 5.47,148.74C9.96,135.17 13.81,122.16 20.23,109.16C26.33,96.72 33.71,84.84 41.09,72.97C55.21,49.78 70.61,26.32 77.35,0.59C77.35,0.03 76.07,-0.26 75.75,0.31C64.19,26.88 48.79,50.92 33.39,75.8Z " /><path id="路径 552" fill-rule="evenodd" style="fill:#28223D" transform="translate(4.186903463939643 66.17376654028578)  rotate(0 5.231472125016588 22.290968317383435)" opacity="1" d="M8.02,25.17C6.74,17.25 6.1,9.06 3.53,1.14C2.89,-0.56 0,-0.27 0,1.42C0.32,8.77 2.25,15.84 3.85,23.19C5.13,29.98 5.46,38.18 9.31,44.11C9.31,44.68 9.95,44.68 9.95,44.4C11.55,38.18 8.98,31.39 8.02,25.17Z " /><path id="路径 553" fill-rule="evenodd" style="fill:#28223D" transform="translate(13.772577573143053 87.42583555201838)  rotate(0 24.106602716840985 12.149696657554268)" opacity="1" d="M47.21,3.35C49.46,2.22 47.53,-0.89 45.29,0.24C30.53,7.88 15.12,14.1 0.68,21.73C-0.6,22.3 0.04,24.56 1.65,24.28C17.37,18.9 32.77,10.99 47.21,3.35Z " /><path id="路径 554" fill-rule="evenodd" style="fill:#28223D" transform="translate(13.939325243499297 40.101409303467904)  rotate(0 5.625963987676109 27.459424083769647)" opacity="1" d="M7.58,32.02C4.69,21.84 3.08,11.95 3.72,1.48C3.72,-0.49 0.52,-0.49 0.2,1.48C-0.45,10.53 0.52,19.3 2.76,28.06C5.01,36.82 6.61,45.87 9.18,54.64C9.18,54.92 10.46,55.2 10.78,54.35C12.39,46.72 9.5,39.09 7.58,32.02Z " /><path id="路径 555" fill-rule="evenodd" style="fill:#28223D" transform="translate(23.29771144561687 71.11466469322079)  rotate(0 23.99694705226238 10.696311491402506)" opacity="1" d="M46.99,2.98C49.24,2.14 47.31,-0.69 45.07,0.16C30.31,6.38 14.58,12.03 0.46,19.38C-0.5,19.95 0.14,21.64 1.43,21.36C17.15,16.55 31.91,9.2 46.99,2.98Z " /><path id="路径 556" fill-rule="evenodd" style="fill:#28223D" transform="translate(29.516649591808346 23.98622605739513)  rotate(0 4.675631506958892 24.467351762033775)" opacity="1" d="M3.55,1.48C3.23,-0.49 -0.3,-0.49 0.02,1.48C0.98,17.03 2.59,32.87 6.44,48.13C6.76,49.55 9.65,48.98 9.33,47.29C7.08,32.02 4.83,16.75 3.55,1.48Z " /><path id="路径 557" fill-rule="evenodd" style="fill:#28223D" transform="translate(35.54881338523728 49.986216028538934)  rotate(0 24.19359514227232 10.501313914951435)" opacity="1" d="M23.19,12.52C31.21,9.41 39.88,6.58 47.58,2.91C49.18,2.06 48.22,-0.48 46.29,0.08C38.27,2.34 30.25,6.02 22.55,9.13C14.85,12.24 6.5,15.07 0.09,19.59C-0.24,20.15 0.41,21 1.05,21C8.75,19.31 15.81,15.63 23.19,12.52Z " /><path id="路径 558" fill-rule="evenodd" style="fill:#28223D" transform="translate(44.619097962487785 9.839567949844763)  rotate(0 4.216759018531073 20.00788402759707)" opacity="1" d="M3.21,0.93C2.89,-0.48 0,-0.2 0,1.21C0.96,13.65 2.25,27.79 6.42,39.38C6.74,40.23 8.02,40.23 8.34,39.38C8.98,26.94 6.1,13.09 3.21,0.93Z " /><path id="路径 559" fill-rule="evenodd" style="fill:#28223D" transform="translate(51.62803220731439 28.43910563854695)  rotate(0 19.338920543185132 9.514328060785902)" opacity="1" d="M13.53 10.32C15 9.67 27.94 3.89 34.22 1.97C34.12 1.46 34.29 0.86 35.03 0.42C35.99 -0.14 36.63 -0.14 37.59 0.42C38.56 0.71 38.88 1.55 38.56 2.12C37.59 6.08 29.25 7.49 25.4 8.91C21.23 10.6 17.06 12.3 12.89 13.99C9.36 15.41 4.54 16.54 1.66 18.8C1.01 19.37 -0.27 18.8 0.05 17.95C1.98 13.71 9.04 12.3 13.53 10.32Z" /><path id="路径 560" fill-rule="evenodd" style="fill:#28223D" transform="translate(60.93385475063155 1.9535645185204658)  rotate(0 2.80253823455861 12.28858207833756)" opacity="1" d="M4.86,11.93C4.54,8.25 4.22,4.29 2.62,0.62C1.98,-0.51 0.37,0.05 0.05,1.18C-0.27,5.14 1.01,9.1 1.66,13.06C2.3,17.01 2.3,20.97 4.22,24.37C4.22,24.65 4.54,24.65 4.86,24.37C6.15,20.41 5.51,15.88 4.86,11.93Z " /><path id="路径 561" fill-rule="evenodd" style="fill:#28223D" transform="translate(65.21114173844035 14.287439562330746)  rotate(0 10.996422833392522 5.6138549152187895)" opacity="1" d="M10.53,7.51C14.06,6.09 17.59,4.4 21.12,2.98C23.05,2.14 21.44,-0.69 19.52,0.16C15.99,1.85 12.46,3.27 9.25,4.96C6.36,6.38 2.83,7.79 0.27,9.77C-0.38,10.33 0.27,11.47 0.91,11.18C4.44,10.33 7.33,8.64 10.53,7.51Z " /></g></g><g opacity="1" transform="translate(1287.790921660838 983.693867425677)  rotate(0 59.21246425711937 72.85082433645098)"><g opacity="1" transform="translate(0 -3.410605131648481e-13)  rotate(0 58.29404712825241 65.41236090353084)"><path id="路径 562" fill-rule="evenodd" style="fill:#888AC2" transform="translate(0 3.410605131648481e-13)  rotate(0 58.29404712825241 65.41236090353084)" opacity="1" d="M95.25,125.81C98.46,128.64 103.27,124.12 105.19,120.44C110.33,109.41 115.46,98.1 116.43,85.95C118.35,62.48 102.95,39.86 81.77,25.73C60.59,11.59 34.28,4.52 8.29,0C8.29,17.25 1.55,33.93 0.26,50.89C-1.66,73.51 7,96.97 25.29,112.81C43.58,128.64 72.14,135.42 96.21,127.51L95.25,125.81Z " /></g><g opacity="1" transform="translate(6.7868626527599645 9.047120418848067)  rotate(0 51.01187722973589 56.964624529242144)"><path id="路径 563" fill-rule="evenodd" style="fill:#444076" transform="translate(0 0)  rotate(0 51.01187722973589 56.964624529242144)" opacity="1" d="M83.33,110.26C86.21,112.81 90.39,108.85 91.99,105.46C96.48,95.56 101.3,85.66 101.94,75.2C103.22,54.85 90.06,35.06 71.45,22.62C52.84,10.18 30.06,3.96 7.27,0C7.27,14.98 1.5,29.4 0.22,44.39C-1.39,64.18 5.99,84.82 22.04,98.39C38.08,111.96 63.11,117.9 83.97,111.11L83.33,110.26Z " /></g><g opacity="1" transform="translate(7.690738477569539 7.964737880960797)  rotate(0 55.367095018334574 68.86845539597024)"><path id="路径 564" fill-rule="evenodd" style="fill:#28223D" transform="translate(7.268911795335271 0)  rotate(0 51.73263912066683 68.86845539597024)" opacity="1" d="M47.56,71.48C61.03,94.1 76.44,120.39 98.9,137.07C101.47,139.05 105,136.22 102.75,133.68C92.48,123.22 82.21,113.32 73.55,101.73C64.88,90.14 57.5,78.27 50.12,66.39C35.68,43.49 21.89,19.18 1.03,0.23C0.71,-0.33 -0.26,0.23 0.06,0.8C18.36,23.13 33.12,46.88 47.56,71.48Z " /><path id="路径 565" fill-rule="evenodd" style="fill:#28223D" transform="translate(32.37320479340042 87.79703219489534)  rotate(0 23.33073777815995 9.653146375684464)" opacity="1" d="M25.02,8.85C17.64,5.74 9.94,2.34 2.24,0.08C0.31,-0.48 -0.97,2.06 0.95,2.91C8.01,6.58 16.03,9.13 23.74,11.96C30.8,14.78 38.82,19.02 46.52,19.31C46.52,19.31 46.84,18.74 46.52,18.74C41.06,13.93 31.76,11.67 25.02,8.85Z " /><path id="路径 566" fill-rule="evenodd" style="fill:#28223D" transform="translate(77.6085006495955 59.32322023422216)  rotate(0 4.011130406602018 23.789297640162605)" opacity="1" d="M8.02,1.7C8.02,-0.57 4.17,-0.57 3.85,1.7C3.21,16.68 0.64,31.38 0,46.37C0,47.78 2.57,48.06 2.89,46.65C6.42,32.23 7.06,16.4 8.02,1.7Z " /><path id="路径 567" fill-rule="evenodd" style="fill:#28223D" transform="translate(12.13187026306764 65.82524605137019)  rotate(0 28.60941580362874 12.6095263847183)" opacity="1" d="M32.42,13.85C21.84,10.46 11.89,6.5 2.58,0.28C0.66,-0.85 -0.95,1.7 0.66,2.83C8.36,7.92 16.7,11.87 26.01,14.98C35.95,18.38 45.9,22.05 56.17,25.16C56.81,25.45 57.45,24.6 57.13,24.03C50.39,18.66 40.77,16.4 32.42,13.85Z " /><path id="路径 568" fill-rule="evenodd" style="fill:#28223D" transform="translate(65.06249223365421 43.702801386054716)  rotate(0 4.83848537548775 22.87174209989119)" opacity="1" d="M9.66,1.48C9.98,-0.49 6.13,-0.49 5.81,1.48C3.56,15.9 0.35,30.32 0.03,44.74C-0.29,45.87 1.96,46.15 2.28,45.02C6.13,30.89 7.41,15.9 9.66,1.48Z " /><path id="路径 569" fill-rule="evenodd" style="fill:#28223D" transform="translate(5.252431180681469 45.58259398658333)  rotate(0 25.315533061619774 11.862768016268209)" opacity="1" d="M2.72,0.17C0.8,-0.68 -1.13,1.87 0.8,3C15.88,10.91 31.92,18.26 48.61,23.64C50.21,24.2 51.5,21.94 49.89,21.09C34.17,14.31 18.13,7.8 2.72,0.17Z " /><path id="路径 570" fill-rule="evenodd" style="fill:#28223D" transform="translate(51.470264500609346 22.51235590566216)  rotate(0 5.058101318678819 23.043691243456415)" opacity="1" d="M6.24,22.39C7.53,15.32 9.13,8.54 10.09,1.47C10.41,-0.23 7.21,-0.51 6.56,0.91C4.32,8.26 3.36,15.61 2.39,22.96C1.11,30.31 -0.5,37.94 0.15,45.29C0.15,46.14 1.43,46.42 1.75,45.58C4.64,38.22 4.96,30.03 6.24,22.39Z " /><path id="路径 571" fill-rule="evenodd" style="fill:#28223D" transform="translate(-2.2737367544323206e-13 27.003231915292872)  rotate(0 20.90569508822696 9.396968916156494)" opacity="1" d="M1.88,0.09C0.27,-0.48 -0.69,1.79 0.59,2.63C12.79,8.57 26.91,15.36 40.39,18.75C41.67,19.03 42.31,17.9 41.35,17.34C29.8,10.27 15.03,4.61 1.88,0.09Z " /><path id="路径 572" fill-rule="evenodd" style="fill:#28223D" transform="translate(37.115595887619975 5.91880604506332)  rotate(0 4.00060951515716 19.105471486703017)" opacity="1" d="M3.76964 27.8019C3.01595 30.9149 2.17445 34.3906 2.63 37.01C2.95 37.85 1.67 38.42 1.34 38.14C-0.919354 35.253 0.169269 30.2798 1.05722 26.2232C1.30114 25.1089 1.52992 24.0637 1.67 23.15C1.99 19.48 2.63 15.52 3.27 11.56C3.34254 11.1817 3.49496 10.6337 3.67351 9.99161C4.18416 8.15539 4.9086 5.55039 4.59 3.95C4.58 3.95 4.57 3.94 4.55 3.93L4.23 3.65C3.27 2.8 2.95 1.95 3.91 1.1C3.91 0.82 4.23 0.82 4.23 0.54C4.87 -0.31 6.16 -0.03 6.8 0.54C8.86143 2.57737 7.82174 6.43552 6.99925 9.48767C6.79634 10.2406 6.60665 10.9446 6.48 11.56C5.84 15.8 5.19 20.04 4.55 24.28C4.36555 25.3406 4.0748 26.5415 3.76964 27.8019Z" /><path id="路径 573" fill-rule="evenodd" style="fill:#28223D" transform="translate(1.8373197063083353 11.228860186271731)  rotate(0 12.535246301918754 5.870131679389)" opacity="1" d="M14.16,4.84C10.31,3.14 6.14,0.6 1.65,0.03C0.04,-0.25 -0.6,1.45 0.68,2.01C4.21,4.56 9.03,5.69 13.2,7.67C17.05,9.36 20.58,11.06 24.75,11.62C25.07,11.91 25.07,11.62 25.07,11.34C22.18,8.23 18.01,6.82 14.16,4.84Z " /><path id="路径 574" fill-rule="evenodd" style="fill:#28223D" transform="translate(24.191989639210988 0.4462568834363765)  rotate(0 2.6517720865078016 10.814136125654496)" opacity="1" d="M5.28,1.48C5.6,-0.49 2.07,-0.49 1.75,1.48C1.11,7.7 -0.49,14.49 0.15,20.99C0.47,21.84 1.75,21.84 2.07,20.99C4.32,15.05 4.64,7.7 5.28,1.48Z " /></g></g><g opacity="1" transform="translate(1534.8189387821958 941.2854904623264)  rotate(0 70.5958951561955 89.48167539267)"><path id="路径 575" fill-rule="evenodd" style="fill:#7A74C2" transform="translate(0 -2.2737367544323206e-13)  rotate(0 70.2750047236672 89.48167539267)" opacity="1" d="M123.22 35.62C129.32 33.93 139.27 39.3 139.27 39.3C138.62 46.65 109.74 60.22 109.74 60.22C121.94 55.13 129.64 61.63 129.64 61.63C128.04 71.25 104.61 81.71 104.61 81.71C113.27 82.55 118.09 85.66 118.09 85.66C116 98.32 90.09 104.8 80.53 106.77C86.89 106.26 90.17 109.98 90.17 109.98C85.68 121.29 63.54 128.64 52.63 133.73C37.87 140.51 23.43 146.45 13.48 159.17C9.67 164.21 1.46 174.78 0.04 178.84C3.55 168.41 5.46 157.43 5.78 146.17C7.7 126.94 7.06 110.54 14.12 91.32C18.93 78.31 30.81 67.01 31.13 67.29L35.94 72.38C32.73 61.63 44.92 47.78 44.92 47.78C48.78 48.35 51.98 51.17 51.98 51.17C53.91 35.91 71.56 22.9 71.56 22.9C78.3 22.05 79.9 32.23 79.9 32.23C79.9 32.23 88.24 10.18 90.81 12.16C93.38 14.14 99.8 20.92 99.8 20.92C100.12 13.01 111.99 5.09 111.99 5.09C117.77 5.94 118.73 12.44 118.73 12.44C127.39 3.39 135.42 0 135.42 0L129.32 14.7C132.85 13.29 140.55 15.83 140.55 15.83C140.55 24.6 123.22 35.62 123.22 35.62Z" /><path id="路径 576" fill-rule="evenodd" style="fill:#444076" transform="translate(18.932535519162457 0.28272251308862906)  rotate(0 61.1296273966147 76.75916230366494)" opacity="1" d="M117.45,0C117.45,0 116.8,0.28 115.84,0.85C87.6,22.62 64.5,49.76 44.6,77.75C32.73,94.15 21.82,111.11 11.87,128.64C7.06,136.84 3.53,145.04 0,153.52C9.63,144.47 21.5,139.38 34.01,133.73C44.92,128.64 67.07,121.29 71.56,109.98C71.56,109.98 68.35,106.02 61.93,106.59C71.24,104.61 97.55,98.39 99.8,85.66C99.8,85.66 94.98,82.55 86.32,81.71C86.32,81.71 109.74,71.25 111.35,61.63C111.35,61.63 103.65,55.13 91.45,60.22C91.45,60.22 120.33,46.65 120.98,39.3C120.98,39.3 111.03,33.93 104.93,35.62C104.93,35.62 122.26,24.6 122.26,15.83C122.26,15.83 114.56,13.29 111.35,14.7L117.45,0Z " /></g></g></g></g></g></g></g></svg>