<svg xmlns="http://www.w3.org/2000/svg" xmlns:xlink="http://www.w3.org/1999/xlink" width="500" zoomAndPan="magnify" viewBox="0 0 375 374.999991" height="500" preserveAspectRatio="xMidYMid meet" version="1.0"><defs><clipPath id="e928edce48"><path d="M 358 69 L 374.890625 69 L 374.890625 81 L 358 81 Z M 358 69 " clip-rule="nonzero"/></clipPath><clipPath id="5cb960d4b7"><path d="M 144.078125 107 L 230.65625 107 L 230.65625 152 L 144.078125 152 Z M 144.078125 107 " clip-rule="nonzero"/></clipPath></defs><path fill="#ffcaa6" d="M 261.605469 317.949219 C 266.46875 322.808594 263.207031 330.882812 256.164062 331.460938 C 243.4375 332.515625 230.027344 327.726562 223.746094 324.402344 C 218.273438 321.515625 215.664062 315.402344 217.25 309.660156 C 227.671875 271.757812 219.050781 231.621094 215.734375 218.78125 C 206.90625 221.9375 197.382812 223.652344 187.46875 223.652344 C 177.5625 223.652344 168.046875 221.9375 159.21875 218.789062 C 155.902344 231.636719 147.28125 271.765625 157.703125 309.660156 C 159.289062 315.402344 156.679688 321.515625 151.207031 324.402344 C 144.925781 327.726562 131.515625 332.515625 118.792969 331.460938 C 111.75 330.882812 108.484375 322.808594 113.347656 317.949219 C 117.699219 313.601562 128.421875 307.519531 139.042969 305.433594 C 139.042969 305.433594 128.714844 264.765625 142.667969 210.738281 C 119.039062 195.859375 103.335938 169.523438 103.335938 139.527344 C 103.335938 93.0625 141.007812 55.390625 187.46875 55.390625 C 233.933594 55.390625 271.597656 93.0625 271.597656 139.527344 C 271.597656 169.515625 255.910156 195.84375 232.285156 210.730469 C 246.246094 264.757812 235.910156 305.433594 235.910156 305.433594 C 246.53125 307.519531 257.253906 313.601562 261.605469 317.949219 Z M 261.605469 317.949219 " fill-opacity="1" fill-rule="nonzero"/><path fill="#444076" d="M 252.484375 333.152344 C 240.359375 333.152344 228.511719 328.671875 223.023438 325.761719 C 216.949219 322.5625 213.964844 315.773438 215.765625 309.253906 C 225.734375 273.003906 217.953125 234.160156 214.648438 220.789062 C 205.921875 223.714844 196.785156 225.203125 187.46875 225.203125 C 178.171875 225.203125 169.042969 223.722656 160.304688 220.796875 C 157.003906 234.175781 149.226562 273.027344 159.1875 309.261719 C 160.988281 315.773438 158.003906 322.570312 151.921875 325.769531 C 145.863281 328.980469 132.046875 334.117188 118.660156 333.007812 C 114.679688 332.683594 111.386719 330.226562 110.0625 326.609375 C 108.816406 323.199219 109.65625 319.46875 112.257812 316.871094 C 116.757812 312.371094 127.113281 306.605469 137.195312 304.265625 C 135.519531 296.3125 128.898438 258.847656 140.898438 211.445312 C 116.390625 195.574219 101.796875 168.777344 101.796875 139.535156 C 101.796875 92.292969 140.230469 53.859375 187.46875 53.859375 C 234.710938 53.859375 273.136719 92.292969 273.136719 139.535156 C 273.136719 168.761719 258.546875 195.558594 234.054688 211.4375 C 246.0625 258.839844 239.429688 296.3125 237.757812 304.265625 C 247.839844 306.597656 258.195312 312.371094 262.699219 316.871094 C 265.300781 319.472656 266.136719 323.207031 264.890625 326.609375 C 263.566406 330.226562 260.273438 332.675781 256.292969 333 C 255.023438 333.097656 253.753906 333.152344 252.484375 333.152344 Z M 216.796875 216.765625 L 217.21875 218.398438 C 220.253906 230.152344 229.34375 271.488281 218.730469 310.066406 C 217.320312 315.179688 219.675781 320.515625 224.457031 323.039062 C 230.222656 326.085938 243.351562 330.976562 256.023438 329.929688 C 258.792969 329.703125 261.074219 328.019531 261.980469 325.539062 C 262.828125 323.238281 262.273438 320.804688 260.503906 319.035156 C 256.09375 314.632812 245.578125 308.898438 235.601562 306.941406 L 234.007812 306.628906 L 234.410156 305.050781 C 234.507812 304.648438 244.476562 264.089844 230.785156 211.105469 L 230.5 210.023438 L 231.453125 209.421875 C 255.617188 194.195312 270.046875 168.0625 270.046875 139.519531 C 270.046875 93.972656 233 56.921875 187.460938 56.921875 C 141.914062 56.921875 104.867188 93.972656 104.867188 139.519531 C 104.867188 168.070312 119.300781 194.203125 143.484375 209.429688 L 144.441406 210.03125 L 144.15625 211.113281 C 130.46875 264.097656 140.429688 304.640625 140.53125 305.050781 L 140.929688 306.628906 L 139.335938 306.941406 C 129.359375 308.898438 118.835938 314.632812 114.433594 319.035156 C 112.664062 320.804688 112.109375 323.238281 112.957031 325.539062 C 113.863281 328.019531 116.152344 329.695312 118.914062 329.929688 C 131.585938 330.96875 144.71875 326.09375 150.480469 323.039062 C 155.269531 320.515625 157.625 315.179688 156.21875 310.066406 C 145.609375 271.503906 154.691406 230.160156 157.726562 218.40625 L 158.148438 216.773438 L 159.734375 217.34375 C 168.617188 220.511719 177.953125 222.113281 187.46875 222.113281 C 197.007812 222.113281 206.335938 220.507812 215.21875 217.335938 Z M 216.796875 216.765625 " fill-opacity="1" fill-rule="nonzero"/><path fill="#ffcaa6" d="M 263.921875 127.804688 L 268.648438 124.507812 L 269.300781 125.703125 L 287.976562 118.410156 L 312.917969 100.929688 L 334.347656 76.003906 L 332.800781 65.953125 L 335.117188 59.917969 L 330.582031 48.292969 L 334.378906 42.550781 L 339.71875 42.550781 L 346.65625 56.847656 L 353.421875 48.871094 L 359.5 48.464844 L 360.949219 54 L 365.699219 56.644531 L 366.792969 62.890625 L 371.386719 63.945312 L 370.132812 71.164062 L 373.132812 75.113281 L 371.386719 79.054688 L 363.128906 79.054688 L 356.816406 85.144531 L 346.539062 85.882812 L 318.828125 116.542969 L 300.183594 130.011719 L 265.761719 145.4375 Z M 263.921875 127.804688 " fill-opacity="1" fill-rule="nonzero"/><path fill="#444076" d="M 270.28125 126.054688 C 269.554688 126.054688 268.910156 125.539062 268.769531 124.800781 C 268.609375 123.96875 269.164062 123.160156 269.996094 123 C 304.679688 116.394531 329.152344 80.984375 332.628906 75.804688 L 331.660156 73.1875 C 330.574219 70.253906 330.613281 67.039062 331.773438 64.136719 L 333.453125 59.941406 L 329.652344 51.171875 C 328.082031 47.554688 329.644531 43.398438 333.214844 41.710938 C 334.96875 40.882812 336.949219 40.789062 338.78125 41.441406 C 340.613281 42.105469 342.074219 43.4375 342.898438 45.199219 L 347 53.960938 L 350.964844 49.027344 C 353.167969 46.285156 357.09375 45.792969 359.902344 47.894531 C 361.386719 49.011719 362.328125 50.710938 362.472656 52.558594 C 362.621094 54.414062 361.964844 56.238281 360.671875 57.578125 L 354.722656 63.742188 C 352.789062 65.746094 349.734375 66.039062 347.464844 64.429688 C 346.222656 63.550781 345.453125 62.179688 345.363281 60.664062 L 345.144531 57.238281 L 340.113281 46.507812 C 339.632812 45.492188 338.796875 44.722656 337.734375 44.34375 C 336.679688 43.96875 335.539062 44.023438 334.523438 44.5 C 332.46875 45.46875 331.566406 47.871094 332.46875 49.957031 L 336.777344 59.902344 L 334.632812 65.28125 C 333.753906 67.476562 333.722656 69.910156 334.546875 72.125 L 336.054688 76.191406 L 335.648438 76.835938 C 334.5625 78.546875 309.144531 118.6875 270.570312 126.03125 C 270.472656 126.046875 270.371094 126.054688 270.28125 126.054688 Z M 348.226562 57.347656 L 348.425781 60.464844 C 348.464844 61.042969 348.757812 61.574219 349.234375 61.902344 C 350.257812 62.628906 351.636719 62.496094 352.503906 61.59375 L 358.453125 55.429688 C 359.132812 54.730469 359.480469 53.765625 359.402344 52.796875 C 359.324219 51.828125 358.832031 50.933594 358.054688 50.347656 C 356.578125 49.242188 354.523438 49.503906 353.367188 50.941406 Z M 348.226562 57.347656 " fill-opacity="1" fill-rule="nonzero"/><path fill="#444076" d="M 356.839844 70.378906 C 356.476562 70.378906 356.105469 70.339844 355.746094 70.253906 C 354.296875 69.941406 353.074219 69.007812 352.375 67.699219 L 350.617188 64.414062 C 350.21875 63.667969 350.503906 62.726562 351.25 62.328125 C 352.003906 61.925781 352.9375 62.210938 353.335938 62.957031 L 355.089844 66.246094 C 355.367188 66.761719 355.835938 67.113281 356.40625 67.246094 C 356.976562 67.375 357.554688 67.246094 358.023438 66.890625 L 364.328125 62.140625 C 365.003906 61.632812 365.429688 60.847656 365.484375 60.003906 C 365.535156 59.15625 365.222656 58.324219 364.621094 57.730469 C 363.367188 56.5 361.8125 56.570312 360.347656 57.910156 L 357.175781 61.171875 C 356.585938 61.78125 355.605469 61.796875 355 61.203125 C 354.390625 60.609375 354.375 59.632812 354.96875 59.023438 L 358.214844 55.675781 C 360.894531 53.191406 364.328125 53.128906 366.777344 55.53125 C 368.023438 56.753906 368.667969 58.460938 368.554688 60.203125 C 368.4375 61.941406 367.570312 63.550781 366.175781 64.597656 L 359.871094 69.347656 C 358.984375 70.03125 357.925781 70.378906 356.839844 70.378906 Z M 356.839844 70.378906 " fill-opacity="1" fill-rule="nonzero"/><path fill="#444076" d="M 360.75 75.683594 C 360.070312 75.683594 359.402344 75.535156 358.777344 75.25 C 357.554688 74.683594 356.628906 73.621094 356.246094 72.320312 L 355.34375 69.285156 C 355.097656 68.46875 355.570312 67.617188 356.382812 67.367188 C 357.199219 67.128906 358.054688 67.59375 358.300781 68.40625 L 359.203125 71.449219 C 359.332031 71.902344 359.648438 72.265625 360.078125 72.457031 C 360.511719 72.648438 360.988281 72.65625 361.417969 72.464844 L 368.300781 69.417969 C 369 69.109375 369.507812 68.53125 369.738281 67.800781 C 369.96875 67.070312 369.871094 66.308594 369.46875 65.652344 C 369.070312 65.003906 368.4375 64.574219 367.691406 64.445312 C 366.945312 64.3125 366.207031 64.496094 365.605469 64.976562 L 363.628906 66.546875 C 362.957031 67.078125 361.996094 66.960938 361.464844 66.300781 C 360.933594 65.628906 361.050781 64.667969 361.710938 64.136719 L 363.6875 62.566406 C 364.96875 61.550781 366.613281 61.132812 368.222656 61.417969 C 369.832031 61.703125 371.242188 62.65625 372.085938 64.050781 C 372.949219 65.453125 373.15625 67.152344 372.671875 68.722656 C 372.1875 70.292969 371.039062 71.570312 369.539062 72.242188 L 362.65625 75.289062 C 362.042969 75.542969 361.394531 75.683594 360.75 75.683594 Z M 360.75 75.683594 " fill-opacity="1" fill-rule="nonzero"/><g clip-path="url(#e928edce48)"><path fill="#444076" d="M 364.296875 80.59375 C 361.851562 80.59375 359.695312 78.832031 359.246094 76.375 L 358.941406 74.636719 C 358.792969 73.796875 359.347656 72.996094 360.1875 72.851562 C 361.027344 72.695312 361.828125 73.257812 361.972656 74.097656 L 362.28125 75.835938 C 362.472656 76.890625 363.457031 77.628906 364.519531 77.507812 L 370.070312 76.898438 C 370.570312 76.84375 371.003906 76.589844 371.285156 76.175781 C 371.570312 75.765625 371.664062 75.273438 371.546875 74.78125 C 371.347656 73.972656 370.839844 73.304688 370.148438 72.957031 C 369.5 72.625 368.753906 72.609375 368.046875 72.902344 L 367.398438 73.171875 C 366.613281 73.496094 365.714844 73.117188 365.390625 72.332031 C 365.066406 71.546875 365.445312 70.648438 366.230469 70.324219 L 366.875 70.054688 C 368.421875 69.417969 370.078125 69.46875 371.539062 70.210938 C 373.027344 70.964844 374.121094 72.355469 374.535156 74.042969 C 374.867188 75.382812 374.605469 76.796875 373.8125 77.9375 C 373.019531 79.070312 371.78125 79.808594 370.410156 79.953125 L 364.859375 80.5625 C 364.667969 80.585938 364.480469 80.59375 364.296875 80.59375 Z M 364.296875 80.59375 " fill-opacity="1" fill-rule="nonzero"/></g><path fill="#444076" d="M 271.480469 145.199219 C 270.839844 145.199219 270.242188 144.800781 270.027344 144.160156 C 269.75 143.359375 270.179688 142.484375 270.988281 142.207031 C 315.0625 127.125 344.882812 86.175781 345.144531 85.78125 L 345.652344 85.011719 L 346.570312 85.097656 C 355.191406 85.859375 363.542969 78.007812 363.628906 77.929688 C 364.242188 77.34375 365.222656 77.367188 365.804688 77.984375 C 366.390625 78.601562 366.367188 79.570312 365.761719 80.164062 C 365.390625 80.515625 356.871094 88.546875 347.214844 88.222656 C 343.328125 93.796875 313.671875 130.867188 271.988281 145.128906 C 271.820312 145.167969 271.648438 145.199219 271.480469 145.199219 Z M 271.480469 145.199219 " fill-opacity="1" fill-rule="nonzero"/><path fill="#ffcaa6" d="M 111.03125 128.574219 L 106.304688 125.277344 L 105.476562 126.25 L 86.96875 119.183594 L 62.039062 101.699219 L 40.609375 76.777344 L 42.15625 66.722656 L 39.835938 60.6875 L 44.363281 49.0625 L 40.578125 43.320312 L 35.226562 43.320312 L 28.300781 57.617188 L 21.523438 49.640625 L 15.445312 49.234375 L 14.003906 54.769531 L 9.253906 57.414062 L 8.15625 63.660156 L 3.558594 64.722656 L 4.820312 71.933594 L 1.820312 75.882812 L 3.558594 79.824219 L 11.828125 79.824219 L 18.136719 85.914062 L 28.40625 86.652344 L 56.117188 117.3125 L 74.769531 130.78125 L 109.191406 146.207031 Z M 111.03125 128.574219 " fill-opacity="1" fill-rule="nonzero"/><path fill="#444076" d="M 104.25 126.773438 C 65.679688 119.429688 40.398438 79.316406 39.304688 77.605469 L 38.898438 76.960938 L 40.40625 72.894531 C 41.230469 70.679688 41.199219 68.246094 40.324219 66.050781 L 38.175781 60.671875 L 42.484375 50.726562 C 43.386719 48.632812 42.484375 46.238281 40.429688 45.269531 C 39.414062 44.792969 38.273438 44.738281 37.21875 45.113281 C 36.164062 45.492188 35.320312 46.261719 34.84375 47.277344 L 29.808594 58.007812 L 29.59375 61.433594 C 29.5 62.949219 28.730469 64.320312 27.492188 65.199219 C 25.21875 66.808594 22.164062 66.515625 20.230469 64.511719 L 14.28125 58.347656 C 12.988281 57.007812 12.335938 55.183594 12.480469 53.328125 C 12.625 51.472656 13.566406 49.773438 15.050781 48.664062 C 17.859375 46.554688 21.785156 47.054688 23.988281 49.796875 L 27.953125 54.730469 L 32.054688 45.96875 C 32.878906 44.207031 34.339844 42.875 36.171875 42.214844 C 38.003906 41.558594 39.984375 41.652344 41.738281 42.484375 C 45.3125 44.167969 46.875 48.324219 45.304688 51.941406 L 41.5 60.710938 L 43.179688 64.90625 C 44.339844 67.816406 44.378906 71.023438 43.292969 73.957031 L 42.324219 76.574219 C 45.8125 81.753906 70.144531 117.132812 104.828125 123.738281 C 105.660156 123.902344 106.214844 124.699219 106.050781 125.539062 C 105.914062 126.277344 105.265625 126.792969 104.542969 126.792969 C 104.441406 126.792969 104.34375 126.785156 104.25 126.773438 Z M 21.585938 51.710938 C 20.433594 50.273438 18.375 50.011719 16.898438 51.121094 C 16.121094 51.703125 15.628906 52.597656 15.550781 53.566406 C 15.476562 54.535156 15.820312 55.5 16.5 56.199219 L 22.449219 62.367188 C 23.320312 63.265625 24.695312 63.398438 25.71875 62.671875 C 26.199219 62.335938 26.488281 61.8125 26.527344 61.234375 L 26.730469 58.117188 Z M 21.585938 51.710938 " fill-opacity="1" fill-rule="nonzero"/><path fill="#444076" d="M 18.113281 71.148438 C 18.476562 71.148438 18.847656 71.109375 19.207031 71.023438 C 20.65625 70.710938 21.878906 69.777344 22.578125 68.46875 L 24.335938 65.183594 C 24.734375 64.4375 24.449219 63.496094 23.703125 63.097656 C 22.949219 62.695312 22.019531 62.980469 21.617188 63.726562 L 19.863281 67.015625 C 19.585938 67.53125 19.117188 67.882812 18.546875 68.015625 C 17.976562 68.144531 17.398438 68.015625 16.929688 67.660156 L 10.625 62.910156 C 9.949219 62.402344 9.523438 61.617188 9.472656 60.773438 C 9.417969 59.925781 9.734375 59.09375 10.332031 58.5 C 11.585938 57.269531 13.144531 57.339844 14.605469 58.679688 L 17.777344 61.941406 C 18.371094 62.550781 19.347656 62.566406 19.953125 61.972656 C 20.5625 61.378906 20.578125 60.402344 19.984375 59.792969 L 16.738281 56.445312 C 14.058594 53.960938 10.625 53.898438 8.175781 56.300781 C 6.929688 57.523438 6.285156 59.234375 6.398438 60.972656 C 6.515625 62.710938 7.386719 64.320312 8.777344 65.367188 L 15.082031 70.117188 C 15.960938 70.800781 17.03125 71.148438 18.113281 71.148438 Z M 18.113281 71.148438 " fill-opacity="1" fill-rule="nonzero"/><path fill="#444076" d="M 14.203125 76.453125 C 14.882812 76.453125 15.550781 76.304688 16.175781 76.019531 C 17.398438 75.453125 18.324219 74.390625 18.707031 73.089844 L 19.609375 70.054688 C 19.855469 69.238281 19.386719 68.386719 18.570312 68.140625 C 17.753906 67.898438 16.898438 68.363281 16.652344 69.179688 L 15.753906 72.21875 C 15.621094 72.671875 15.304688 73.035156 14.875 73.226562 C 14.445312 73.417969 13.964844 73.425781 13.535156 73.234375 L 6.660156 70.1875 C 5.960938 69.878906 5.453125 69.300781 5.222656 68.570312 C 4.992188 67.839844 5.089844 67.078125 5.492188 66.421875 C 5.890625 65.777344 6.523438 65.34375 7.269531 65.214844 C 8.015625 65.082031 8.753906 65.265625 9.355469 65.746094 L 11.332031 67.316406 C 12.003906 67.847656 12.964844 67.730469 13.496094 67.070312 C 14.027344 66.398438 13.914062 65.4375 13.25 64.90625 L 11.273438 63.335938 C 9.996094 62.320312 8.347656 61.902344 6.738281 62.1875 C 5.128906 62.472656 3.722656 63.425781 2.875 64.820312 C 2.011719 66.222656 1.804688 67.921875 2.289062 69.492188 C 2.773438 71.0625 3.921875 72.339844 5.421875 73.011719 L 12.304688 76.058594 C 12.902344 76.3125 13.550781 76.453125 14.203125 76.453125 Z M 14.203125 76.453125 " fill-opacity="1" fill-rule="nonzero"/><path fill="#444076" d="M 10.65625 81.363281 C 13.105469 81.363281 15.257812 79.601562 15.707031 77.144531 L 16.015625 75.40625 C 16.160156 74.566406 15.605469 73.765625 14.765625 73.621094 C 13.929688 73.464844 13.128906 74.027344 12.980469 74.867188 L 12.671875 76.605469 C 12.480469 77.660156 11.496094 78.398438 10.433594 78.277344 L 4.882812 77.667969 C 4.382812 77.613281 3.953125 77.359375 3.667969 76.945312 C 3.382812 76.535156 3.289062 76.042969 3.40625 75.550781 C 3.605469 74.742188 4.113281 74.074219 4.804688 73.726562 C 5.453125 73.394531 6.199219 73.378906 6.90625 73.671875 L 7.554688 73.941406 C 8.339844 74.265625 9.238281 73.890625 9.5625 73.105469 C 9.886719 72.320312 9.507812 71.417969 8.722656 71.09375 L 8.078125 70.824219 C 6.53125 70.1875 4.875 70.238281 3.414062 70.980469 C 1.925781 71.734375 0.835938 73.125 0.417969 74.8125 C 0.0859375 76.152344 0.347656 77.566406 1.140625 78.707031 C 1.933594 79.839844 3.175781 80.578125 4.542969 80.722656 L 10.09375 81.332031 C 10.285156 81.355469 10.472656 81.363281 10.65625 81.363281 Z M 10.65625 81.363281 " fill-opacity="1" fill-rule="nonzero"/><path fill="#444076" d="M 103.464844 145.96875 C 104.105469 145.96875 104.703125 145.570312 104.921875 144.929688 C 105.199219 144.128906 104.765625 143.253906 103.957031 142.976562 C 59.882812 127.894531 30.0625 86.945312 29.800781 86.550781 L 29.292969 85.78125 L 28.375 85.867188 C 19.753906 86.628906 11.402344 78.777344 11.316406 78.699219 C 10.703125 78.113281 9.726562 78.136719 9.140625 78.753906 C 8.554688 79.371094 8.578125 80.339844 9.1875 80.933594 C 9.554688 81.285156 18.078125 89.316406 27.730469 88.992188 C 31.617188 94.566406 61.277344 131.636719 102.957031 145.898438 C 103.132812 145.945312 103.296875 145.96875 103.464844 145.96875 Z M 103.464844 145.96875 " fill-opacity="1" fill-rule="nonzero"/><g clip-path="url(#5cb960d4b7)"><path fill="#ffffff" d="M 230.65625 129.601562 C 230.65625 141.765625 220.878906 151.605469 208.789062 151.605469 C 198.367188 151.605469 189.621094 144.226562 187.433594 134.390625 C 185.117188 144.226562 176.367188 151.605469 165.949219 151.605469 C 153.855469 151.605469 144.078125 141.765625 144.078125 129.601562 C 144.078125 117.433594 153.855469 107.597656 165.949219 107.597656 C 176.367188 107.597656 185.117188 114.976562 187.304688 124.8125 C 189.492188 114.976562 198.238281 107.597656 208.660156 107.597656 C 220.75 107.597656 230.65625 117.433594 230.65625 129.601562 Z M 230.65625 129.601562 " fill-opacity="1" fill-rule="nonzero"/></g><path fill="#000000" d="M 204.027344 160.144531 L 179.328125 160.144531 C 176.753906 160.144531 174.695312 162.21875 174.695312 164.804688 L 174.695312 182.019531 C 174.695312 191.339844 182.285156 198.976562 191.550781 198.976562 C 200.8125 198.976562 208.402344 191.339844 208.402344 182.019531 L 208.402344 164.804688 C 208.53125 162.21875 206.472656 160.144531 204.027344 160.144531 Z M 172.253906 88.3125 C 164.789062 87.664062 157.328125 89.347656 150.769531 92.84375 C 147.808594 94.394531 150.382812 98.925781 153.339844 97.371094 C 159.128906 94.265625 165.691406 92.972656 172.253906 93.488281 C 173.667969 93.617188 174.824219 92.195312 174.824219 90.902344 C 174.824219 89.347656 173.667969 88.441406 172.253906 88.3125 Z M 224.867188 92.84375 C 218.308594 89.347656 210.71875 87.664062 203.382812 88.3125 C 201.96875 88.441406 200.8125 89.347656 200.8125 90.902344 C 200.8125 92.195312 201.96875 93.617188 203.382812 93.488281 C 209.945312 92.972656 216.507812 94.265625 222.296875 97.371094 C 225.125 98.925781 227.699219 94.394531 224.867188 92.84375 Z M 215.734375 129.988281 C 215.734375 138.011719 209.171875 144.613281 201.199219 144.613281 C 194.894531 144.613281 189.492188 140.472656 187.433594 134.777344 C 185.503906 140.472656 180.097656 144.613281 173.667969 144.613281 C 165.691406 144.613281 159.128906 138.011719 159.128906 129.988281 C 159.128906 121.964844 165.691406 115.363281 173.667969 115.363281 C 179.972656 115.363281 185.375 119.503906 187.433594 125.199219 C 189.363281 119.503906 194.765625 115.363281 201.199219 115.363281 C 209.171875 115.363281 215.734375 121.835938 215.734375 129.988281 Z M 215.734375 129.988281 " fill-opacity="1" fill-rule="nonzero"/><path fill="#d85041" d="M 208.53125 180.46875 L 208.53125 182.019531 C 208.53125 191.082031 201.453125 198.457031 192.707031 198.976562 C 191.675781 197.164062 191.035156 194.964844 191.035156 192.632812 C 191.035156 185.386719 196.824219 179.5625 204.027344 179.5625 C 205.570312 179.5625 207.113281 179.949219 208.53125 180.46875 Z M 208.53125 180.46875 " fill-opacity="1" fill-rule="nonzero"/><path fill="#ffffff" d="M 198.367188 160.792969 C 198.367188 164.027344 196.566406 166.746094 194.378906 166.746094 C 193.351562 166.746094 192.449219 166.230469 191.675781 165.195312 C 191.035156 166.101562 190.003906 166.746094 188.976562 166.746094 C 186.789062 166.746094 184.988281 164.160156 184.988281 160.792969 C 184.988281 160.535156 184.988281 160.40625 184.988281 160.144531 L 198.238281 160.144531 C 198.367188 160.40625 198.367188 160.664062 198.367188 160.792969 Z M 198.367188 160.792969 " fill-opacity="1" fill-rule="nonzero"/></svg>