<svg xmlns="http://www.w3.org/2000/svg" xmlns:xlink="http://www.w3.org/1999/xlink" width="291" height="64" viewBox="0 0 291 64" fill="none"><g opacity="1" transform="translate(0 0)  rotate(0 145.25 32)"><g opacity="1" transform="translate(0 2)  rotate(0 30 30)"><path id="logo" fill-rule="evenodd" style="fill:#444076" transform="translate(2.5 2.5000000000000173)  rotate(0 27.5 27.500000000000004)" opacity="1" d="M50.3817 28.858L29.7917 28.858L29.7917 50.308C40.9317 49.198 49.7217 40.118 50.3817 28.858Z M55 27.5L55 0L27.5 0C12.31 0 0 12.31 0 27.5C0 42.69 12.31 55 27.5 55C42.23 55 54.26 43.42 54.97 28.86L55 27.5Z M4.58333 27.4933C4.58333 39.3833 13.6233 49.1533 25.2133 50.3033L25.2133 24.2733L50.4133 24.2733L50.4133 4.58333L27.5033 4.58333C14.8433 4.58333 4.58333 14.8433 4.58333 27.4933Z " /></g><g opacity="1" transform="translate(83.5 0)  rotate(0 103.5 32)"><text><tspan x="0" y="51.6" font-size="56" line-height="64" fill="#444076" opacity="1" font-family="YouSheBiaoTiYuan" letter-spacing="0" >兼职信息</tspan></text></g></g></svg>